<svg width="34" height="34" viewBox="0 0 34 34" fill="none" xmlns="http://www.w3.org/2000/svg">
<path d="M24.0834 12.75V21.25H9.91675V12.75H24.0834ZM26.9167 4.25H24.0834V8.5H26.9167V4.25ZM9.91675 4.25H7.08341V8.5H9.91675V4.25ZM32.5834 9.91667H28.3334V12.75H32.5834V9.91667ZM26.9167 9.91667H7.08341V24.0833H26.9167V9.91667ZM5.66675 9.91667H1.41675V12.75H5.66675V9.91667ZM32.5834 21.25H28.3334V24.0833H32.5834V21.25ZM5.66675 21.25H1.41675V24.0833H5.66675V21.25ZM26.9167 25.5H24.0834V29.75H26.9167V25.5ZM9.91675 25.5H7.08341V29.75H9.91675V25.5Z" fill="white"/>
</svg>
