<svg width="24" height="23" viewBox="0 0 24 23" fill="none" xmlns="http://www.w3.org/2000/svg">
<path d="M7 10.5416H1V12.4583H7V10.5416ZM9.17 7.43665L7.05 5.40498L5.64 6.75623L7.76 8.7879L9.17 7.43665ZM13 0.958313H11V6.70831H13V0.958313ZM18.36 6.75623L16.95 5.40498L14.83 7.43665L16.24 8.7879L18.36 6.75623ZM17 10.5416V12.4583H23V10.5416H17ZM12 8.62498C11.2044 8.62498 10.4413 8.92788 9.87868 9.46705C9.31607 10.0062 9 10.7375 9 11.5C9 12.2625 9.31607 12.9937 9.87868 13.5329C10.4413 14.0721 11.2044 14.375 12 14.375C12.7956 14.375 13.5587 14.0721 14.1213 13.5329C14.6839 12.9937 15 12.2625 15 11.5C15 10.7375 14.6839 10.0062 14.1213 9.46705C13.5587 8.92788 12.7956 8.62498 12 8.62498ZM14.83 15.5633L16.95 17.595L18.36 16.2437L16.24 14.2121L14.83 15.5633ZM5.64 16.2437L7.05 17.595L9.17 15.5633L7.76 14.2121L5.64 16.2437ZM11 22.0416H13V16.2916H11V22.0416Z" fill="black"/>
</svg>
