<svg width="365" height="365" viewBox="0 0 365 365" fill="none" xmlns="http://www.w3.org/2000/svg">
<path d="M75.3797 312.937C135.795 344.502 233.746 344.502 294.161 312.937C354.575 281.371 354.583 230.206 294.161 198.64C233.739 167.075 135.795 167.083 75.3797 198.64C14.9649 230.198 14.9649 281.379 75.3797 312.937Z" fill="#F5F5F5"/>
<path d="M286.81 296.942C305.174 296.942 320.061 289.847 320.061 281.094C320.061 272.341 305.174 265.246 286.81 265.246C268.445 265.246 253.558 272.341 253.558 281.094C253.558 289.847 268.445 296.942 286.81 296.942Z" fill="#E0E0E0"/>
<path d="M49.5523 270.48C49.4508 269.819 49.2012 269.19 48.8223 268.64C48.1211 267.888 47.1727 267.414 46.1505 267.304C45.1362 267.207 44.1275 267.058 43.1283 266.859C41.6154 266.447 40.3279 265.451 39.549 264.091C38.77 262.73 38.5634 261.116 38.9746 259.603V259.559C39.2447 258.595 39.7557 257.705 40.0258 256.741C40.7558 254.193 38.7629 253.135 36.9598 251.908C35.6969 251.054 33.6383 249.799 33.9011 248.003C34.3975 244.63 39.3615 243.776 44.1211 245.127C48.8807 246.477 51.4211 247.536 54.9543 246.587C58.4875 245.638 61.7652 245.419 63.6194 248.587C65.4736 251.755 63.6194 254.712 66.0065 256.923C68.3936 259.135 72.5765 257.617 74.219 262.406V290.941C74.219 290.774 73.4014 290.211 73.2846 290.117L70.6639 287.802C69.8609 287.072 68.7002 286.43 68.1527 285.525C67.3789 284.269 66.9993 282.78 66.2109 281.51C65.3229 279.984 64.0424 278.723 62.5025 277.86C59.473 276.298 55.7938 276.568 52.7205 275.057C51.5927 274.55 50.6783 273.664 50.1363 272.553C49.8734 271.883 49.6777 271.188 49.5523 270.48Z" fill="#BA68C8"/>
<path opacity="0.2" d="M49.5523 270.48C49.4508 269.819 49.2012 269.19 48.8223 268.64C48.1211 267.888 47.1727 267.414 46.1505 267.304C45.1362 267.207 44.1275 267.058 43.1283 266.859C41.6154 266.447 40.3279 265.451 39.549 264.091C38.77 262.73 38.5634 261.116 38.9746 259.603V259.559C39.2447 258.595 39.7557 257.705 40.0258 256.741C40.7558 254.193 38.7629 253.135 36.9598 251.908C35.6969 251.054 33.6383 249.799 33.9011 248.003C34.3975 244.63 39.3615 243.776 44.1211 245.127C48.8807 246.477 51.4211 247.536 54.9543 246.587C58.4875 245.638 61.7652 245.419 63.6194 248.587C65.4736 251.755 63.6194 254.712 66.0065 256.923C68.3936 259.135 72.5765 257.617 74.219 262.406V290.941C74.219 290.774 73.4014 290.211 73.2846 290.117L70.6639 287.802C69.8609 287.072 68.7002 286.43 68.1527 285.525C67.3789 284.269 66.9993 282.78 66.2109 281.51C65.3229 279.984 64.0424 278.723 62.5025 277.86C59.473 276.298 55.7938 276.568 52.7205 275.057C51.5927 274.55 50.6783 273.664 50.1363 272.553C49.8734 271.883 49.6777 271.188 49.5523 270.48Z" fill="black"/>
<path d="M74.3212 284.656C74.2351 284.656 74.1517 284.626 74.0852 284.572C74.0186 284.517 73.9731 284.441 73.9562 284.357C70.9413 267.173 50.8225 251.302 38.8432 248.339C38.7514 248.316 38.6722 248.258 38.6229 248.177C38.5737 248.097 38.5584 248 38.5804 247.908C38.6029 247.814 38.6616 247.733 38.7437 247.682C38.8258 247.632 38.9245 247.616 39.0184 247.638C51.1875 250.645 71.6129 266.778 74.6789 284.233C74.6873 284.28 74.6861 284.329 74.6756 284.376C74.6651 284.423 74.6453 284.467 74.6175 284.507C74.5897 284.546 74.5543 284.58 74.5135 284.605C74.4726 284.631 74.4271 284.648 74.3796 284.656H74.3212Z" fill="white"/>
<path d="M45.8657 260.785C45.8099 260.784 45.7549 260.772 45.7045 260.748C45.6541 260.724 45.6095 260.689 45.5737 260.646C45.5149 260.57 45.4887 260.473 45.501 260.377C45.5133 260.281 45.5631 260.195 45.6394 260.135C48.4937 257.872 54.3191 257.215 56.6478 257.354C56.7446 257.36 56.8352 257.404 56.8995 257.476C56.9638 257.549 56.9967 257.644 56.9909 257.741C56.9851 257.838 56.9411 257.928 56.8685 257.993C56.796 258.057 56.7008 258.09 56.604 258.084C54.2169 257.923 48.6689 258.668 46.092 260.705C46.0275 260.756 45.948 260.784 45.8657 260.785Z" fill="white"/>
<path d="M59.13 260.259H58.9913C58.947 260.242 58.9064 260.217 58.8721 260.184C58.8377 260.151 58.8102 260.112 58.7912 260.069C58.7722 260.025 58.762 259.978 58.7613 259.931C58.7605 259.883 58.7692 259.836 58.7869 259.792C60.3126 256.084 59.5169 249.842 59.4731 249.777C59.4605 249.682 59.4856 249.586 59.5429 249.51C59.6002 249.433 59.6853 249.382 59.7797 249.368C59.8763 249.355 59.974 249.381 60.0518 249.44C60.1296 249.499 60.1813 249.585 60.1958 249.682C60.1958 249.945 61.0572 256.186 59.4658 260.07C59.4331 260.129 59.3844 260.179 59.325 260.213C59.2657 260.246 59.1981 260.262 59.13 260.259Z" fill="white"/>
<path d="M72.737 295.949C71.861 293.38 67.627 287.97 60.0642 283.736C53.4504 280.05 43.2742 277.32 44.1502 272.465C45.0262 267.611 54.4359 267.501 60.9402 271.407C69.0943 276.305 73.6714 286.328 74.2043 290.277L72.737 295.949Z" fill="#BA68C8"/>
<path d="M73.5255 293.241C73.4399 293.242 73.3568 293.212 73.2912 293.158C73.2255 293.103 73.1818 293.026 73.1678 292.942C71.4742 283.97 58.7576 271.772 48.6106 272.042C48.5627 272.044 48.5148 272.036 48.4698 272.02C48.4247 272.003 48.3834 271.978 48.3482 271.945C48.3129 271.913 48.2844 271.873 48.2643 271.83C48.2442 271.786 48.2329 271.739 48.231 271.691C48.2291 271.643 48.2368 271.594 48.2538 271.549C48.2708 271.503 48.2968 271.462 48.3301 271.426C48.3634 271.391 48.4034 271.363 48.4478 271.343C48.4922 271.323 48.5401 271.313 48.5887 271.312C59.0788 271.049 72.1458 283.576 73.8832 292.803C73.9006 292.898 73.8807 292.995 73.8276 293.076C73.7746 293.156 73.6924 293.213 73.5985 293.234H73.5255V293.241Z" fill="white"/>
<path d="M297.781 255.682C299.241 250.835 303.994 246.389 308.06 243.718C312.126 241.046 315.228 239.732 317.024 238.221C319.214 236.396 316.375 232.067 309.673 234.607C302.972 237.148 298.898 244.601 296.453 252.127L297.781 255.682Z" fill="#BA68C8"/>
<path opacity="0.2" d="M297.781 255.682C299.241 250.835 303.994 246.389 308.06 243.718C312.126 241.046 315.228 239.732 317.024 238.221C319.214 236.396 316.375 232.067 309.673 234.607C302.972 237.148 298.898 244.601 296.453 252.127L297.781 255.682Z" fill="black"/>
<path d="M297.555 252.522H297.409C297.309 252.484 297.228 252.408 297.183 252.312C297.138 252.215 297.133 252.104 297.168 252.003C299.701 245.39 306.337 237.403 313.637 235.702C313.744 235.685 313.854 235.711 313.943 235.774C314.031 235.836 314.092 235.931 314.112 236.038C314.128 236.137 314.107 236.239 314.053 236.324C314 236.409 313.916 236.471 313.82 236.498C307.651 237.958 300.818 244.747 297.927 252.295C297.894 252.365 297.841 252.423 297.775 252.463C297.709 252.503 297.632 252.524 297.555 252.522Z" fill="white"/>
<path d="M296.263 274.838C298.044 272.874 301.884 273.618 304.038 271.02C305.739 268.976 304.439 265.975 306.147 264.026C306.641 263.525 307.236 263.134 307.892 262.88C309.33 262.361 310.722 261.721 312.053 260.968C313.331 260.113 314.382 258.719 314.243 257.193C314.104 255.668 312.98 254.39 313.024 252.886C313.146 251.801 313.651 250.794 314.447 250.047C315.243 249.312 315.956 248.492 316.572 247.601C316.901 247.102 317.039 246.5 316.959 245.908C316.843 245.493 316.607 245.121 316.281 244.839C315.955 244.558 315.554 244.378 315.126 244.324C312.885 243.893 310.936 245.163 308.994 246.083C307.337 246.871 305.782 246.733 303.965 246.74C303.239 246.703 302.511 246.784 301.811 246.981C300.395 247.455 299.453 248.798 298.811 250.156C298.168 251.514 297.723 252.981 296.803 254.164C296.121 254.882 295.482 255.64 294.891 256.434C294.402 257.44 294.088 258.521 293.964 259.632C293.384 262.306 293.185 265.049 293.372 267.778C293.472 269.106 293.754 270.412 294.212 271.662C294.358 271.947 296.081 275.035 296.263 274.838Z" fill="#BA68C8"/>
<path d="M310.629 258.259H310.527C310.469 258.259 304.789 256.836 300.694 257.778C300.589 257.8 300.479 257.78 300.388 257.723C300.297 257.666 300.231 257.575 300.205 257.471C300.181 257.365 300.2 257.255 300.257 257.163C300.315 257.071 300.406 257.006 300.512 256.982C304.789 256.004 310.483 257.413 310.732 257.471C310.783 257.485 310.832 257.51 310.874 257.543C310.917 257.576 310.952 257.617 310.978 257.664C311.005 257.711 311.022 257.762 311.028 257.815C311.035 257.869 311.031 257.923 311.016 257.975C310.994 258.059 310.945 258.134 310.877 258.188C310.808 258.242 310.724 258.272 310.637 258.274L310.629 258.259Z" fill="white"/>
<path d="M303.892 254.193C303.789 254.192 303.691 254.152 303.617 254.082C303.543 254.011 303.498 253.916 303.49 253.814C303.266 252.249 302.832 250.721 302.198 249.273C302.178 249.181 302.19 249.085 302.232 249.001C302.274 248.917 302.344 248.85 302.43 248.812C302.515 248.773 302.612 248.765 302.702 248.79C302.793 248.814 302.873 248.869 302.928 248.945C303.601 250.478 304.058 252.097 304.286 253.755C304.292 253.863 304.256 253.97 304.185 254.051C304.114 254.133 304.014 254.184 303.906 254.193H303.892Z" fill="white"/>
<path d="M294.548 272.399H294.504C294.399 272.388 294.302 272.336 294.235 272.254C294.168 272.172 294.136 272.067 294.146 271.961C295.373 261.42 301.731 252.981 313.046 246.806C313.14 246.756 313.25 246.745 313.352 246.775C313.455 246.805 313.541 246.873 313.593 246.966C313.619 247.013 313.635 247.064 313.641 247.116C313.647 247.169 313.642 247.223 313.627 247.273C313.612 247.324 313.587 247.372 313.554 247.413C313.521 247.454 313.479 247.488 313.433 247.514C302.366 253.536 296.146 261.785 294.956 272.049C294.942 272.147 294.893 272.237 294.818 272.301C294.743 272.365 294.647 272.4 294.548 272.399Z" fill="white"/>
<path d="M127.436 74.8104L122.713 77.5333C122.742 77.3277 122.757 77.1204 122.757 76.9128V75.5404C122.757 73.1095 121.048 72.124 118.939 73.3504C118.033 73.9084 117.259 74.6554 116.668 75.5404C116.318 72.4817 113.924 71.3429 111.004 73.0292C109.342 74.112 107.959 75.5713 106.967 77.2887C105.976 79.006 105.403 80.9331 105.295 82.9134V84.9574C105.274 85.7753 105.441 86.5872 105.784 87.3299L101.864 89.5929C101.249 89.9917 100.736 90.5301 100.369 91.1644C100.001 91.7986 99.7877 92.5108 99.7471 93.2429C99.7471 94.5934 100.689 95.1409 101.864 94.462L127.414 79.7014C128.027 79.3004 128.538 78.7615 128.906 78.1277C129.273 77.4939 129.488 76.7828 129.531 76.0514C129.553 74.6863 128.604 74.1388 127.436 74.8104Z" fill="#EBEBEB"/>
<path d="M96.2359 62.2763L93.6371 63.2764V57.5386C93.6371 52.998 89.9871 51.903 86.0743 54.1806C82.1323 56.4509 78.9422 61.977 78.9422 66.5249V67.3571C78.3885 67.1845 77.8027 67.1408 77.2295 67.2294C76.6563 67.3179 76.111 67.5364 75.6353 67.8681C74.1453 68.8432 72.9061 70.1557 72.0183 71.6993C71.1304 73.2428 70.6189 74.974 70.5253 76.7522V77.1318L66.8753 79.2269C65.8931 79.8667 65.0753 80.7288 64.4881 81.7434C63.9009 82.7579 63.5609 83.8965 63.4954 85.0669C63.4954 87.2569 65.0065 88.0964 66.8753 87.016L96.2359 70.08C97.2181 69.4401 98.0358 68.578 98.623 67.5635C99.2102 66.5489 99.5503 65.4104 99.6158 64.24C99.6158 62.05 98.1047 61.1959 96.2359 62.2763Z" fill="#EBEBEB"/>
<path d="M163.79 295.65L163.695 295.745C163.624 295.82 163.54 295.882 163.447 295.928C163.265 296.044 163.17 295.928 163.002 295.818L161.637 295.015C161.067 294.687 160.41 294.285 159.709 293.869C159.009 293.453 158.249 293 157.519 292.526C156.059 291.599 154.563 290.65 153.483 289.905L151.679 288.657C151.679 288.657 152.482 289.007 153.658 289.591C154.833 290.175 156.41 290.956 157.95 291.781C158.731 292.19 159.49 292.613 160.213 293.008C160.936 293.402 161.6 293.774 162.17 294.103L163.52 294.92C163.681 295.03 163.849 295.037 163.841 295.256C163.847 295.359 163.835 295.463 163.805 295.563L163.79 295.65Z" fill="#E0E0E0"/>
<path d="M165.199 296.643C164.14 298.475 162.418 299.468 160.6 298.482L160.498 298.431H160.454C160.186 298.228 159.975 297.96 159.841 297.652C159.707 297.344 159.654 297.006 159.687 296.672C159.739 295.715 160.015 294.784 160.495 293.954C160.974 293.124 161.643 292.42 162.447 291.898C162.712 291.71 163.018 291.59 163.34 291.546C163.661 291.503 163.989 291.539 164.294 291.65L164.389 291.708L164.557 291.81C166.257 292.876 166.243 294.84 165.199 296.643Z" fill="#263238"/>
<path d="M163.644 293.715C164.637 293.146 165.44 293.606 165.44 294.752C165.407 295.375 165.227 295.982 164.915 296.522C164.603 297.063 164.167 297.522 163.644 297.862C162.651 298.431 161.848 297.971 161.848 296.825C161.882 296.202 162.062 295.596 162.374 295.056C162.686 294.516 163.121 294.056 163.644 293.715Z" fill="#455A64"/>
<path d="M169.462 296.782C167.837 295.956 166.338 294.904 165.009 293.657L162.374 297.986C164.16 298.491 165.861 299.261 167.418 300.271L169.462 296.782Z" fill="#455A64"/>
<path d="M171.221 297.446C171.212 296.871 170.977 296.324 170.567 295.921C170.158 295.518 169.606 295.292 169.031 295.292C168.782 295.301 168.535 295.35 168.301 295.438H168.177C168.058 295.481 167.944 295.535 167.834 295.599C167.198 296.011 166.668 296.568 166.288 297.224C165.907 297.88 165.687 298.616 165.644 299.373C165.646 299.557 165.665 299.741 165.703 299.921C165.848 300.402 166.155 300.818 166.571 301.1C166.988 301.382 167.488 301.512 167.989 301.468C168.49 301.425 168.961 301.21 169.322 300.86C169.683 300.511 169.913 300.048 169.973 299.548C169.98 299.48 169.98 299.412 169.973 299.344C170.335 299.172 170.643 298.904 170.863 298.569C171.083 298.235 171.207 297.846 171.221 297.446Z" fill="#263238"/>
<path d="M169.068 296.38C170.272 295.687 171.258 296.249 171.258 297.643C171.216 298.4 170.995 299.136 170.615 299.792C170.234 300.448 169.704 301.005 169.068 301.417C167.863 302.147 166.878 301.549 166.878 300.162C166.92 299.403 167.14 298.666 167.52 298.009C167.901 297.352 168.431 296.794 169.068 296.38Z" fill="#455A64"/>
<path d="M180.522 290.701L180.427 290.796C180.352 290.869 180.269 290.933 180.178 290.985C179.996 291.102 179.901 290.985 179.733 290.876L178.368 290.073L176.441 288.927C175.711 288.511 174.981 288.051 174.251 287.584C172.791 286.656 171.331 285.7 170.214 284.956C169.097 284.211 168.411 283.707 168.411 283.707C168.411 283.707 169.214 284.065 170.389 284.649C171.564 285.233 173.141 286.007 174.682 286.839C175.463 287.24 176.222 287.671 176.945 288.065C177.667 288.46 178.332 288.795 178.901 289.153C179.47 289.511 179.945 289.752 180.281 289.934C180.434 290.044 180.602 290.051 180.595 290.27C180.609 290.372 180.609 290.475 180.595 290.577L180.522 290.701Z" fill="#E0E0E0"/>
<path d="M181.901 291.693C180.843 293.526 179.12 294.519 177.302 293.533L177.2 293.475H177.156C176.889 293.271 176.678 293.003 176.544 292.695C176.409 292.387 176.356 292.05 176.39 291.715C176.443 290.758 176.721 289.827 177.2 288.996C177.68 288.166 178.347 287.459 179.149 286.934C179.415 286.747 179.721 286.628 180.043 286.586C180.365 286.544 180.692 286.581 180.996 286.693L181.098 286.744C181.156 286.774 181.21 286.81 181.259 286.854C182.967 287.927 182.953 289.883 181.901 291.693Z" fill="#263238"/>
<path d="M180.346 288.766C181.339 288.189 182.142 288.657 182.142 289.803C182.109 290.425 181.929 291.03 181.617 291.569C181.304 292.109 180.869 292.566 180.346 292.905C179.361 293.482 178.558 293.015 178.558 291.876C178.59 291.253 178.769 290.647 179.08 290.107C179.391 289.567 179.825 289.107 180.346 288.766Z" fill="#455A64"/>
<path d="M186.15 291.825C184.525 290.999 183.026 289.947 181.697 288.7L179.069 293.037C180.855 293.532 182.554 294.301 184.106 295.314L186.15 291.825Z" fill="#455A64"/>
<path d="M187.924 292.497C187.914 291.922 187.679 291.374 187.27 290.971C186.86 290.569 186.308 290.343 185.734 290.343C185.484 290.348 185.237 290.397 185.004 290.489H184.96L184.88 290.526C184.762 290.569 184.648 290.62 184.537 290.679C183.9 291.092 183.37 291.65 182.989 292.307C182.609 292.964 182.388 293.702 182.347 294.46C182.346 294.642 182.369 294.824 182.412 295C182.501 295.533 182.788 296.013 183.215 296.344C183.642 296.675 184.178 296.833 184.716 296.786C185.254 296.739 185.755 296.491 186.118 296.091C186.482 295.691 186.681 295.168 186.676 294.628V294.431C187.043 294.256 187.354 293.983 187.574 293.641C187.795 293.299 187.916 292.903 187.924 292.497Z" fill="#263238"/>
<path d="M185.77 291.402C186.975 290.708 187.96 291.27 187.96 292.657C187.92 293.416 187.7 294.154 187.319 294.811C186.939 295.468 186.408 296.026 185.77 296.439C184.566 297.132 183.58 296.57 183.58 295.176C183.623 294.419 183.844 293.683 184.224 293.027C184.605 292.371 185.134 291.814 185.77 291.402Z" fill="#455A64"/>
<path d="M133.86 291.153V291.022C133.831 290.922 133.816 290.819 133.816 290.715C133.816 290.496 133.977 290.489 134.137 290.379L135.517 289.598C136.086 289.27 136.751 288.868 137.473 288.503C138.196 288.138 138.933 287.686 139.729 287.277C141.277 286.459 142.832 285.664 144.022 285.087C145.211 284.51 146.007 284.153 146.007 284.153C146.007 284.153 145.277 284.671 144.204 285.401C143.131 286.131 141.649 287.094 140.167 288.022C139.437 288.496 138.707 288.941 137.977 289.365C137.247 289.788 136.612 290.182 136.05 290.511L134.685 291.314C134.51 291.401 134.422 291.54 134.232 291.423C134.142 291.378 134.06 291.316 133.991 291.241L133.86 291.153Z" fill="#E0E0E0"/>
<path d="M132.451 292.139C133.517 293.971 135.24 294.964 137.057 293.978L137.16 293.927H137.196C137.465 293.725 137.678 293.457 137.813 293.149C137.949 292.841 138.003 292.503 137.97 292.168C137.917 291.211 137.64 290.281 137.16 289.451C136.681 288.622 136.013 287.917 135.211 287.394C134.946 287.206 134.639 287.086 134.318 287.042C133.996 286.999 133.669 287.034 133.364 287.145L133.261 287.204C133.205 287.234 133.152 287.268 133.101 287.306C131.4 288.35 131.4 290.336 132.451 292.139Z" fill="#263238"/>
<path d="M134.006 289.211C133.021 288.642 132.218 289.102 132.218 290.248C132.25 290.87 132.429 291.476 132.74 292.017C133.051 292.557 133.484 293.017 134.006 293.358C134.999 293.927 135.802 293.467 135.802 292.321C135.768 291.698 135.588 291.092 135.276 290.552C134.964 290.011 134.529 289.552 134.006 289.211Z" fill="#455A64"/>
<path d="M128.195 292.277C129.82 291.452 131.319 290.4 132.648 289.153L135.276 293.482C133.49 293.986 131.789 294.757 130.232 295.767L128.195 292.277Z" fill="#455A64"/>
<path d="M126.436 292.942C126.429 292.658 126.479 292.375 126.582 292.111C126.686 291.846 126.841 291.605 127.039 291.401C127.237 291.197 127.473 291.035 127.734 290.923C127.995 290.812 128.276 290.754 128.56 290.752C128.833 290.746 129.103 290.795 129.356 290.898H129.407H129.487C129.603 290.944 129.715 290.997 129.823 291.058C130.459 291.471 130.989 292.028 131.369 292.684C131.75 293.339 131.97 294.076 132.013 294.832C132.013 295.017 131.991 295.201 131.947 295.38C131.859 295.913 131.572 296.393 131.145 296.724C130.718 297.055 130.182 297.213 129.644 297.166C129.105 297.119 128.605 296.87 128.241 296.47C127.878 296.07 127.679 295.548 127.684 295.008C127.677 294.94 127.677 294.871 127.684 294.803C127.325 294.638 127.018 294.377 126.798 294.048C126.577 293.72 126.452 293.337 126.436 292.942Z" fill="#263238"/>
<path d="M128.589 291.854C127.385 291.124 126.399 291.715 126.399 293.11C126.442 293.866 126.663 294.603 127.043 295.258C127.424 295.914 127.954 296.471 128.589 296.884C129.794 297.614 130.779 297.015 130.779 295.628C130.739 294.871 130.519 294.134 130.138 293.478C129.758 292.821 129.227 292.265 128.589 291.854Z" fill="#455A64"/>
<path d="M85.4905 285.474L264.749 181.982V41.8728L85.4905 145.365V285.474Z" fill="#BA68C8"/>
<path opacity="0.6" d="M85.4905 285.474L264.749 181.982V41.8728L85.4905 145.365V285.474Z" fill="white"/>
<path d="M77.2195 140.591L85.4904 145.365L264.749 41.8729L273.02 27.543L77.2195 140.591Z" fill="#37474F"/>
<path d="M273.02 186.763V27.543L264.749 41.8729V181.982L273.02 186.763Z" fill="#455A64"/>
<path d="M77.2195 140.591L85.4904 145.365V285.474L77.2195 299.804V140.591Z" fill="#455A64"/>
<path d="M85.4904 285.474L264.749 181.982L273.02 186.763L77.2195 299.804L85.4904 285.474Z" fill="#37474F"/>
<path d="M273.02 27.5429L267.501 24.3601L71.7007 137.408L77.2195 140.591L273.02 27.5429Z" fill="#455A64"/>
<path d="M71.7007 137.408L77.2195 140.591V299.804L71.7007 296.621V137.408Z" fill="#263238"/>
<path d="M264.749 41.8728L261.99 43.4642L261.983 180.398L85.4905 282.291V285.474L264.749 181.982V41.8728Z" fill="#263238"/>
<path d="M139.824 168.112L102.682 189.552C102.469 189.692 102.293 189.88 102.166 190.1C102.039 190.321 101.966 190.568 101.952 190.822V251.2C101.952 251.675 102.28 251.865 102.682 251.624L139.824 230.184C140.037 230.044 140.213 229.856 140.34 229.635C140.467 229.415 140.54 229.168 140.554 228.914V168.535C140.554 168.068 140.226 167.9 139.824 168.112Z" fill="#455A64"/>
<path d="M143.715 166.929L142.431 166.199C142.203 166.088 141.954 166.03 141.701 166.03C141.447 166.03 141.198 166.088 140.971 166.199L103.821 187.61C103.607 187.75 103.429 187.939 103.302 188.161C103.176 188.383 103.103 188.632 103.091 188.888V249.259C103.103 249.514 103.176 249.763 103.302 249.985C103.429 250.207 103.607 250.396 103.821 250.536L105.106 251.266C105.333 251.378 105.583 251.436 105.836 251.436C106.089 251.436 106.338 251.378 106.566 251.266L143.701 229.819C143.913 229.679 144.09 229.491 144.217 229.27C144.343 229.05 144.417 228.803 144.431 228.549V168.199C144.42 167.946 144.35 167.699 144.225 167.478C144.101 167.258 143.926 167.07 143.715 166.929Z" fill="#FAFAFA"/>
<path d="M122.845 199.458L103.302 188.172C103.166 188.392 103.091 188.644 103.083 188.902V249.273C103.096 249.529 103.168 249.777 103.295 250C103.422 250.222 103.6 250.41 103.813 250.551L105.098 251.281C105.325 251.392 105.575 251.45 105.828 251.45C106.081 251.45 106.331 251.392 106.558 251.281L122.881 237.097C122.983 222.927 123.078 199.589 122.845 199.458Z" fill="#E0E0E0"/>
<path d="M143.715 167.776L106.58 189.216C106.366 189.356 106.189 189.545 106.062 189.767C105.935 189.989 105.862 190.238 105.85 190.494V250.872C105.85 251.339 106.179 251.529 106.58 251.295L143.715 229.848C143.928 229.708 144.104 229.52 144.231 229.3C144.358 229.079 144.431 228.832 144.445 228.578V168.199C144.452 167.732 144.124 167.542 143.715 167.776Z" fill="#F0F0F0"/>
<path d="M107.96 190.012L142.35 170.163C142.759 169.929 143.08 170.119 143.08 170.586V227.03C143.066 227.285 142.993 227.533 142.866 227.755C142.739 227.977 142.563 228.166 142.35 228.307L107.967 248.156C107.566 248.39 107.237 248.2 107.237 247.725V191.26C107.254 191.01 107.327 190.768 107.453 190.551C107.578 190.335 107.751 190.15 107.96 190.012Z" fill="#FAFAFA"/>
<path d="M107.222 191.26V201.298C108.347 201.706 109.792 201.517 111.354 200.611C115.004 198.524 117.924 193.443 117.924 189.267C117.924 187.333 117.296 185.938 116.267 185.194L107.974 189.983C107.757 190.121 107.576 190.309 107.445 190.531C107.315 190.753 107.238 191.003 107.222 191.26Z" fill="#BA68C8"/>
<path d="M136.839 188.968L127.903 210.342L122.063 205.597C121.959 205.509 121.838 205.442 121.708 205.401C121.577 205.359 121.44 205.345 121.304 205.358C121.168 205.371 121.036 205.411 120.915 205.476C120.795 205.541 120.689 205.629 120.603 205.736C120.549 205.806 120.502 205.882 120.465 205.962L107.222 235.016V247.704C107.222 248.178 107.551 248.368 107.952 248.134L113.15 245.134L142.35 228.286C142.563 228.144 142.739 227.955 142.866 227.733C142.993 227.511 143.066 227.263 143.08 227.008V195.217L138.62 188.785C138.545 188.675 138.45 188.579 138.339 188.506C138.228 188.432 138.104 188.38 137.973 188.355C137.842 188.329 137.707 188.329 137.577 188.355C137.446 188.382 137.322 188.434 137.211 188.508C137.043 188.62 136.913 188.78 136.839 188.968Z" fill="#BA68C8"/>
<path d="M127.312 185.698C126.254 187.53 124.524 188.523 122.706 187.537L122.604 187.486C122.343 187.279 122.139 187.009 122.011 186.701C121.883 186.393 121.836 186.058 121.874 185.727C121.923 184.77 122.199 183.839 122.677 183.01C123.155 182.18 123.823 181.475 124.626 180.953C124.891 180.765 125.197 180.644 125.519 180.601C125.84 180.558 126.168 180.593 126.473 180.704L126.575 180.763C126.631 180.792 126.685 180.827 126.735 180.865C128.371 181.931 128.356 183.894 127.312 185.698Z" fill="#263238"/>
<path d="M125.757 182.77C126.75 182.201 127.553 182.661 127.553 183.807C127.52 184.43 127.34 185.037 127.028 185.577C126.716 186.118 126.281 186.577 125.757 186.917C124.764 187.486 123.961 187.026 123.961 185.88C123.995 185.257 124.176 184.651 124.488 184.111C124.8 183.57 125.235 183.111 125.757 182.77Z" fill="#455A64"/>
<path d="M131.568 185.836C129.946 185.01 128.449 183.958 127.122 182.712L124.487 187.041C126.274 187.545 127.974 188.315 129.531 189.325L131.568 185.836Z" fill="#455A64"/>
<path d="M133.327 186.5C133.329 186.22 133.276 185.941 133.17 185.681C133.064 185.421 132.908 185.184 132.711 184.984C132.514 184.784 132.279 184.625 132.02 184.515C131.762 184.406 131.484 184.349 131.203 184.347C130.93 184.341 130.66 184.391 130.407 184.493H130.363L130.276 184.529C130.16 184.576 130.048 184.629 129.94 184.69C129.304 185.103 128.775 185.66 128.394 186.315C128.014 186.971 127.793 187.707 127.75 188.464C127.75 188.649 127.772 188.832 127.816 189.012C127.961 189.493 128.268 189.909 128.684 190.191C129.101 190.473 129.601 190.603 130.102 190.559C130.603 190.516 131.074 190.301 131.435 189.951C131.796 189.602 132.026 189.138 132.086 188.639C132.094 188.571 132.094 188.503 132.086 188.435C132.452 188.259 132.762 187.985 132.981 187.644C133.2 187.302 133.32 186.906 133.327 186.5Z" fill="#263238"/>
<path d="M132.711 188.806C133.562 187.333 133.56 185.74 132.708 185.248C131.856 184.756 130.476 185.552 129.626 187.026C128.775 188.499 128.777 190.092 129.629 190.584C130.481 191.076 131.861 190.28 132.711 188.806Z" fill="#455A64"/>
<path d="M190.924 104.602L153.782 126.042C153.569 126.181 153.391 126.369 153.264 126.589C153.138 126.81 153.065 127.058 153.052 127.312V187.69C153.052 188.165 153.381 188.355 153.782 188.114L190.924 166.674C191.136 166.533 191.313 166.345 191.44 166.125C191.566 165.904 191.64 165.657 191.654 165.404V105.025C191.654 104.558 191.326 104.39 190.924 104.602Z" fill="#455A64"/>
<path d="M194.815 103.419L193.53 102.689C193.304 102.574 193.054 102.514 192.8 102.514C192.547 102.514 192.296 102.574 192.07 102.689L154.921 124.1C154.708 124.242 154.531 124.431 154.405 124.653C154.278 124.874 154.205 125.123 154.191 125.378V185.749C154.205 186.004 154.278 186.252 154.405 186.474C154.531 186.695 154.708 186.885 154.921 187.026L156.205 187.756C156.433 187.868 156.682 187.926 156.935 187.926C157.189 187.926 157.438 187.868 157.665 187.756L194.801 166.309C195.015 166.17 195.193 165.983 195.32 165.762C195.447 165.541 195.519 165.293 195.531 165.038V104.689C195.521 104.436 195.451 104.188 195.327 103.968C195.202 103.747 195.027 103.559 194.815 103.419Z" fill="#FAFAFA"/>
<path d="M173.944 135.948L154.402 124.662C154.268 124.882 154.192 125.134 154.183 125.392V185.763C154.197 186.018 154.271 186.266 154.397 186.488C154.524 186.71 154.701 186.899 154.913 187.041L156.198 187.771C156.425 187.882 156.675 187.94 156.928 187.94C157.181 187.94 157.431 187.882 157.658 187.771L173.981 173.587C174.083 159.417 174.178 136.079 173.944 135.948Z" fill="#E0E0E0"/>
<path d="M194.815 104.266L157.68 125.706C157.468 125.848 157.291 126.037 157.164 126.259C157.037 126.48 156.964 126.729 156.95 126.984V187.362C156.95 187.829 157.279 188.019 157.68 187.785L194.815 166.338C195.029 166.2 195.207 166.012 195.334 165.791C195.461 165.57 195.534 165.322 195.545 165.068V104.689C195.553 104.222 195.224 104.032 194.815 104.266Z" fill="#F0F0F0"/>
<path d="M159.06 126.502L193.45 106.653C193.859 106.419 194.18 106.609 194.18 107.076V163.52C194.168 163.775 194.095 164.024 193.968 164.246C193.842 164.468 193.664 164.657 193.45 164.797L159.067 184.646C158.666 184.88 158.337 184.69 158.337 184.215V127.75C158.355 127.501 158.429 127.259 158.554 127.042C158.679 126.826 158.852 126.641 159.06 126.502Z" fill="#FAFAFA"/>
<path d="M158.323 127.75V137.788C159.447 138.196 160.892 138.007 162.454 137.101C166.104 135.014 169.024 129.933 169.024 125.757C169.024 123.823 168.397 122.428 167.367 121.684L159.074 126.473C158.858 126.612 158.677 126.8 158.546 127.022C158.416 127.244 158.339 127.493 158.323 127.75Z" fill="#BA68C8"/>
<path d="M187.939 125.458L179.004 146.832L173.164 142.087C173.042 141.991 172.901 141.923 172.75 141.889C172.598 141.855 172.442 141.856 172.291 141.891C172.14 141.926 171.999 141.995 171.878 142.092C171.758 142.189 171.66 142.312 171.594 142.452L158.352 171.506V184.194C158.352 184.668 158.68 184.858 159.082 184.624L164.25 181.624L193.45 164.776C193.664 164.635 193.842 164.446 193.969 164.224C194.095 164.002 194.168 163.753 194.18 163.498V131.707L189.72 125.275C189.646 125.165 189.552 125.07 189.441 124.996C189.331 124.922 189.207 124.871 189.077 124.845C188.947 124.819 188.812 124.82 188.682 124.846C188.552 124.872 188.428 124.924 188.318 124.998C188.149 125.11 188.017 125.27 187.939 125.458Z" fill="#BA68C8"/>
<path d="M178.412 122.187C177.353 124.02 175.623 125.012 173.806 124.027L173.703 123.976C173.444 123.767 173.241 123.497 173.114 123.189C172.986 122.882 172.938 122.548 172.973 122.217C173.026 121.261 173.303 120.331 173.781 119.502C174.259 118.672 174.925 117.967 175.726 117.442C175.991 117.255 176.297 117.135 176.619 117.092C176.94 117.049 177.267 117.084 177.573 117.194L177.675 117.253C177.735 117.275 177.789 117.31 177.835 117.355C179.471 118.421 179.456 120.384 178.412 122.187Z" fill="#263238"/>
<path d="M176.857 119.26C177.85 118.691 178.653 119.151 178.653 120.297C178.621 120.92 178.441 121.527 178.129 122.068C177.817 122.608 177.381 123.067 176.857 123.407C175.865 123.976 175.062 123.516 175.062 122.37C175.095 121.747 175.275 121.14 175.587 120.6C175.899 120.06 176.334 119.601 176.857 119.26Z" fill="#455A64"/>
<path d="M182.668 122.326C181.047 121.498 179.551 120.446 178.222 119.202L175.587 123.531C177.375 124.032 179.075 124.802 180.631 125.815L182.668 122.326Z" fill="#455A64"/>
<path d="M184.427 122.99C184.434 122.639 184.353 122.292 184.192 121.98C184.032 121.668 183.796 121.401 183.507 121.202C183.218 121.003 182.884 120.879 182.535 120.841C182.186 120.803 181.833 120.851 181.507 120.983H181.463L181.376 121.019C181.26 121.064 181.148 121.118 181.04 121.18C180.404 121.593 179.875 122.15 179.494 122.805C179.114 123.461 178.893 124.197 178.85 124.954C178.858 125.138 178.88 125.321 178.916 125.502C179.014 126.028 179.304 126.498 179.73 126.822C180.156 127.146 180.687 127.299 181.22 127.253C181.753 127.206 182.249 126.963 182.613 126.571C182.976 126.178 183.181 125.664 183.186 125.129C183.194 125.061 183.194 124.993 183.186 124.925C183.556 124.755 183.87 124.482 184.09 124.139C184.31 123.796 184.427 123.398 184.427 122.99Z" fill="#263238"/>
<path d="M183.82 125.294C184.671 123.82 184.669 122.227 183.817 121.735C182.965 121.244 181.585 122.04 180.735 123.513C179.884 124.987 179.886 126.58 180.738 127.072C181.59 127.563 182.97 126.767 183.82 125.294Z" fill="#455A64"/>
<path d="M245.28 111.34L208.138 132.78C207.926 132.92 207.749 133.108 207.623 133.329C207.496 133.549 207.422 133.796 207.408 134.05V194.428C207.408 194.903 207.736 195.093 208.138 194.852L245.28 173.412C245.493 173.272 245.669 173.084 245.796 172.863C245.923 172.643 245.996 172.395 246.01 172.141V111.763C246.01 111.296 245.711 111.128 245.28 111.34Z" fill="#455A64"/>
<path d="M249.2 110.157L247.915 109.427C247.688 109.316 247.438 109.258 247.185 109.258C246.932 109.258 246.683 109.316 246.455 109.427L209.306 130.838C209.092 130.978 208.914 131.167 208.787 131.389C208.66 131.611 208.588 131.86 208.576 132.115V192.486C208.588 192.742 208.66 192.991 208.787 193.213C208.914 193.435 209.092 193.624 209.306 193.764L210.59 194.494C210.817 194.609 211.067 194.669 211.32 194.669C211.574 194.669 211.824 194.609 212.05 194.494L249.186 173.047C249.399 172.907 249.576 172.72 249.703 172.499C249.83 172.278 249.903 172.031 249.916 171.776V111.427C249.904 111.174 249.834 110.927 249.71 110.707C249.585 110.486 249.411 110.298 249.2 110.157Z" fill="#FAFAFA"/>
<path d="M228.329 142.686L208.78 131.4C208.644 131.62 208.568 131.872 208.561 132.13V192.501C208.573 192.757 208.646 193.005 208.773 193.228C208.9 193.45 209.077 193.638 209.291 193.779L210.576 194.509C210.802 194.624 211.052 194.684 211.306 194.684C211.56 194.684 211.81 194.624 212.036 194.509L228.366 180.31C228.49 166.155 228.563 142.817 228.329 142.686Z" fill="#E0E0E0"/>
<path d="M249.2 111.004L212.065 132.444C211.851 132.584 211.674 132.773 211.547 132.995C211.42 133.217 211.347 133.466 211.335 133.721V194.1C211.335 194.567 211.664 194.757 212.065 194.523L249.2 173.076C249.414 172.937 249.591 172.749 249.718 172.528C249.845 172.307 249.917 172.06 249.93 171.805V111.427C249.938 110.96 249.609 110.77 249.2 111.004Z" fill="#F0F0F0"/>
<path d="M213.445 133.24L247.835 113.391C248.244 113.157 248.565 113.347 248.565 113.814V170.258C248.551 170.513 248.478 170.761 248.351 170.983C248.224 171.205 248.048 171.394 247.835 171.535L213.452 191.384C213.051 191.618 212.722 191.428 212.722 190.953V134.488C212.74 134.239 212.814 133.997 212.939 133.78C213.064 133.564 213.237 133.379 213.445 133.24Z" fill="#FAFAFA"/>
<path d="M212.708 134.488V144.54C213.832 144.949 215.277 144.759 216.839 143.854C220.489 141.766 223.409 136.685 223.409 132.51C223.409 130.575 222.782 129.181 221.752 128.436L213.459 133.225C213.245 133.363 213.065 133.549 212.934 133.768C212.804 133.987 212.726 134.234 212.708 134.488Z" fill="#BA68C8"/>
<path d="M242.36 132.196L233.425 153.57L227.585 148.825C227.481 148.736 227.36 148.67 227.229 148.628C227.099 148.587 226.962 148.573 226.825 148.586C226.689 148.599 226.557 148.639 226.437 148.704C226.316 148.769 226.21 148.857 226.125 148.964C226.072 149.035 226.025 149.111 225.986 149.19L212.744 178.244V190.932C212.744 191.406 213.072 191.596 213.474 191.362L218.635 188.34L247.835 171.492C248.048 171.35 248.224 171.161 248.351 170.939C248.478 170.717 248.551 170.469 248.565 170.214V138.445L244.105 132.013C243.954 131.791 243.72 131.637 243.456 131.587C243.192 131.536 242.918 131.592 242.696 131.743C242.542 131.858 242.425 132.015 242.36 132.196Z" fill="#BA68C8"/>
<path d="M306.885 167.455C306.009 163.673 304.249 156.038 302.395 147.745C301.454 143.518 300.38 139.321 297.227 138.664C297.227 138.664 288.919 141.949 288.919 148.073C288.919 154.198 295.73 156.505 295.73 156.505C295.73 156.505 300.11 168.674 300.015 170.375" fill="#FFA8A7"/>
<path d="M233.001 129.064C231.943 130.896 230.22 131.889 228.402 130.904L228.3 130.852H228.256C227.989 130.649 227.778 130.381 227.644 130.073C227.509 129.765 227.457 129.427 227.49 129.093C227.542 128.135 227.819 127.203 228.298 126.372C228.778 125.542 229.446 124.836 230.249 124.312C230.516 124.127 230.822 124.009 231.144 123.967C231.465 123.925 231.792 123.96 232.096 124.071L232.198 124.122L232.359 124.231C234.06 125.297 234.045 127.261 233.001 129.064Z" fill="#263238"/>
<path d="M231.446 126.137C232.439 125.567 233.242 126.027 233.242 127.173C233.208 127.796 233.028 128.402 232.716 128.943C232.404 129.483 231.969 129.942 231.446 130.283C230.461 130.852 229.658 130.393 229.658 129.246C229.692 128.624 229.872 128.019 230.183 127.479C230.493 126.939 230.926 126.479 231.446 126.137Z" fill="#455A64"/>
<path d="M237.25 129.21C235.626 128.384 234.126 127.332 232.797 126.086L230.162 130.415C231.949 130.916 233.65 131.686 235.206 132.699L237.25 129.21Z" fill="#455A64"/>
<path d="M278.86 136.97C275.998 136.97 273.137 136.744 270.983 138.277C265.406 142.241 258.347 147.475 254.923 150.358C254.923 150.358 244.82 130.028 241.119 127.429C238.732 125.75 236.841 125.042 235.184 124.947C234.417 124.869 233.642 124.978 232.926 125.265C232.21 125.553 231.575 126.01 231.074 126.597C229.512 128.422 230.089 130.977 233.746 130.363C234.724 130.196 235.447 128.173 235.447 128.173C236.352 128.261 235.739 131.334 236.629 131.546C238.177 133.641 239.944 132.765 240.82 135.028C242.024 138.153 249.412 158.176 250.587 159.702C251.879 161.381 253.595 161.98 256.427 160.52C259.259 159.06 273.75 149.949 273.75 149.949L278.86 136.97Z" fill="#FFA8A7"/>
<path d="M239.024 129.867C239.024 129.292 238.798 128.741 238.395 128.331C237.993 127.922 237.445 127.687 236.87 127.677C236.608 127.678 236.348 127.728 236.104 127.823H236.06L235.98 127.86C235.861 127.903 235.746 127.956 235.637 128.02C235.001 128.432 234.471 128.989 234.09 129.645C233.709 130.301 233.489 131.037 233.447 131.794C233.447 131.979 233.469 132.162 233.512 132.342C233.601 132.875 233.888 133.355 234.315 133.686C234.742 134.017 235.278 134.175 235.816 134.128C236.355 134.08 236.855 133.832 237.219 133.432C237.582 133.032 237.781 132.51 237.776 131.969C237.783 131.901 237.783 131.833 237.776 131.765C238.137 131.593 238.445 131.325 238.665 130.991C238.885 130.656 239.009 130.267 239.024 129.867Z" fill="#263238"/>
<path d="M236.87 128.772C238.075 128.042 239.06 128.64 239.06 130.035C239.018 130.792 238.797 131.528 238.416 132.184C238.036 132.839 237.506 133.396 236.87 133.809C235.666 134.502 234.68 133.94 234.68 132.553C234.722 131.795 234.942 131.058 235.323 130.4C235.703 129.743 236.234 129.185 236.87 128.772Z" fill="#455A64"/>
<path d="M295.103 265.91H289.175V274.538H295.103V265.91Z" fill="#FFA8A7"/>
<path d="M279.196 271.991C278.838 273.049 277.057 273.889 275.772 274.845C275.286 275.186 274.937 275.69 274.788 276.265C274.64 276.84 274.701 277.45 274.962 277.984C275.444 278.816 277.714 279.247 280.13 278.86C282.86 278.415 285.24 277.269 285.722 274.845C286.029 272.814 286.568 270.825 287.328 268.917C287.803 267.669 288.635 266.494 288.438 265.267C288.311 264.668 288.065 264.101 287.714 263.599C287.362 263.097 286.913 262.671 286.394 262.347C286.394 262.347 281.911 272.509 280.649 272.75C279.386 272.991 279.196 271.991 279.196 271.991Z" fill="#263238"/>
<path d="M278.991 258.42C278.991 258.42 279.94 261.785 280.254 262.887C280.568 263.99 280.13 269.603 279.524 271.151C279.29 272.051 278.764 272.847 278.028 273.414C278.028 273.414 276.21 274.991 278.312 275.305C279.179 275.511 280.087 275.47 280.931 275.184C281.776 274.899 282.523 274.382 283.087 273.692C284.481 272.1 284.656 267.538 285.591 265.662C286.189 264.457 286.627 263.72 286.788 263.325C286.948 262.931 286.372 262.72 285.788 261.019C285.325 259.342 284.981 257.634 284.758 255.909L278.991 258.42Z" fill="#FFA8A7"/>
<path d="M299.234 177.974C302.33 186.581 299.629 201.59 298.826 210.094C298.044 218.336 297.074 227.972 297.074 227.972C297.074 227.972 299.599 236.688 299.475 243.404C299.351 250.536 295.176 267.713 295.176 267.713C294.268 268.295 293.213 268.605 292.135 268.605C291.057 268.605 290.002 268.295 289.095 267.713C289.095 267.713 288.029 253.296 287.065 245.083C286.051 236.535 285.707 230.301 284.831 225.3C283.729 219.073 282.744 194.531 282.744 194.531L278.13 220.387C279.582 223.463 280.752 226.663 281.627 229.95C282.926 235.009 285.467 258.727 285.467 258.727C285.467 258.727 283.62 261.413 279.502 260.968C279.502 260.968 267.56 226.658 266.362 223.417C264.727 218.934 267.487 189.494 268.392 179.617L299.234 177.974Z" fill="#455A64"/>
<path d="M288.708 137.284C288.708 137.284 296.227 138.225 297.227 138.678C289.357 144.211 295.73 156.519 295.73 156.519L291.92 166.995C295.176 170.645 297.139 172.66 299.22 177.945C297.03 180.485 283.393 189.26 268.399 179.616C268.706 174.529 269.296 169.462 270.166 164.44C267.976 154.096 267.779 150.833 268.399 148.416C270.173 141.62 274.203 137.24 278.86 136.999L288.708 137.284Z" fill="#BA68C8"/>
<path opacity="0.2" d="M288.708 137.284C288.708 137.284 296.227 138.225 297.227 138.678C289.357 144.211 295.73 156.519 295.73 156.519L291.92 166.995C295.176 170.645 297.139 172.66 299.22 177.945C297.03 180.485 283.393 189.26 268.399 179.616C268.706 174.529 269.296 169.462 270.166 164.44C267.976 154.096 267.779 150.833 268.399 148.416C270.173 141.62 274.203 137.24 278.86 136.999L288.708 137.284Z" fill="black"/>
<path d="M289.175 271.611V270.764C288.444 273.57 286.984 276.131 284.941 278.189C283.072 279.889 280.517 281.839 279.867 283.758C279.218 285.678 282.882 286.525 285.299 286.277C287.648 285.992 289.812 284.86 291.387 283.094C292.92 281.335 292.898 280.13 293.577 279.159C294.256 278.189 295.949 277.101 296.336 275.984C296.548 275.363 296.292 274.013 295.993 272.867C295.694 271.721 295.424 270.677 295.066 270.764V271.414C294.222 272.077 293.175 272.43 292.102 272.414C291.27 272.451 289.168 272.29 289.175 271.611Z" fill="#263238"/>
<path d="M295.102 271.414C294.92 270.83 293.343 272.239 292 272.29C291.131 272.327 289.81 272.224 289.81 271.56L289.175 270.764C288.444 273.57 286.983 276.131 284.941 278.188L283.517 279.451C282.517 280.561 282.787 281.525 285.138 281.729C287.489 281.933 289.518 280.517 291.306 278.342C293.095 276.166 295.102 271.414 295.102 271.414Z" fill="#FFA8A7"/>
<path d="M283.583 132.239H282.182C280.409 132.239 278.654 131.89 277.016 131.212C275.379 130.534 273.891 129.539 272.637 128.286C271.384 127.033 270.39 125.545 269.711 123.907C269.033 122.27 268.684 120.514 268.684 118.742V117.369C268.684 114.326 269.893 111.407 272.045 109.255C274.197 107.103 277.116 105.894 280.159 105.894H285.686C287.193 105.894 288.685 106.191 290.077 106.767C291.469 107.344 292.734 108.189 293.8 109.255C294.866 110.321 295.711 111.586 296.288 112.978C296.864 114.37 297.161 115.862 297.161 117.369V118.662C297.161 122.263 295.731 125.716 293.184 128.263C290.638 130.809 287.184 132.239 283.583 132.239Z" fill="#263238"/>
<path d="M273.363 111.632C271.859 112.522 269.998 116.304 270.18 124.231C270.341 130.947 272.516 132.612 273.611 133.086C274.706 133.561 276.816 133.276 278.86 132.933V136.97C278.86 136.97 276.028 140.262 276.21 142.08C276.393 143.898 280.298 144.365 282.955 142.562C285.613 140.759 287.839 137.233 287.839 137.233L287.795 127.962C287.795 127.962 289 129.13 291.044 127.341C292.737 125.881 293.307 123.377 291.986 122.041C291.708 121.776 291.38 121.569 291.022 121.431C290.664 121.293 290.282 121.226 289.898 121.236C289.515 121.245 289.137 121.33 288.786 121.486C288.435 121.642 288.118 121.865 287.854 122.144C287.627 122.386 287.442 122.665 287.306 122.968C287.306 122.968 284.036 123.093 279.678 120.698C277.988 119.788 276.536 118.493 275.439 116.918C274.343 115.343 273.631 113.532 273.363 111.632Z" fill="#FFA8A7"/>
<path d="M277.685 122.545C277.684 122.711 277.731 122.874 277.822 123.013C277.912 123.152 278.041 123.261 278.193 123.327C278.345 123.394 278.513 123.414 278.677 123.386C278.84 123.357 278.992 123.281 279.112 123.167C279.233 123.054 279.318 122.907 279.356 122.745C279.394 122.584 279.384 122.415 279.326 122.259C279.269 122.104 279.168 121.968 279.034 121.87C278.901 121.771 278.741 121.714 278.575 121.706C278.462 121.702 278.35 121.72 278.243 121.76C278.137 121.8 278.04 121.86 277.958 121.937C277.875 122.014 277.808 122.107 277.761 122.21C277.715 122.313 277.689 122.425 277.685 122.538V122.545Z" fill="#263238"/>
<path d="M277.459 128.239L275.495 128.867C275.562 129.125 275.728 129.347 275.958 129.484C276.188 129.621 276.462 129.661 276.721 129.597H276.772C277.043 129.507 277.266 129.313 277.395 129.059C277.523 128.805 277.546 128.51 277.459 128.239Z" fill="#F28F8F"/>
<path d="M270.757 119.946L272.465 118.764C272.397 118.652 272.308 118.556 272.202 118.479C272.097 118.402 271.977 118.347 271.851 118.317C271.724 118.286 271.592 118.281 271.464 118.301C271.335 118.322 271.211 118.367 271.1 118.435H271.049C270.931 118.515 270.829 118.618 270.75 118.737C270.671 118.856 270.617 118.99 270.59 119.13C270.563 119.27 270.564 119.415 270.592 119.555C270.621 119.695 270.677 119.828 270.757 119.946Z" fill="#263238"/>
<path d="M271.151 121.91C271.15 122.076 271.197 122.239 271.288 122.378C271.378 122.517 271.507 122.626 271.66 122.693C271.812 122.759 271.98 122.779 272.143 122.751C272.307 122.722 272.458 122.646 272.579 122.532C272.699 122.419 272.784 122.272 272.822 122.11C272.86 121.949 272.85 121.78 272.793 121.624C272.736 121.469 272.634 121.333 272.5 121.235C272.367 121.136 272.207 121.079 272.042 121.071C271.813 121.065 271.59 121.15 271.423 121.307C271.257 121.464 271.159 121.681 271.151 121.91Z" fill="#263238"/>
<path d="M275.137 121.45L275.006 126.538L272.327 125.706L275.137 121.45Z" fill="#F28F8F"/>
<path d="M278.86 132.933C281.05 132.648 285.474 131.378 286.16 129.619C285.885 130.508 285.342 131.291 284.605 131.86C283.277 132.999 278.86 134.32 278.86 134.32V132.933Z" fill="#F28F8F"/>
<path d="M294.168 160.812L288.255 168.827L291.92 166.995L294.168 160.812Z" fill="#BA68C8"/>
<path opacity="0.4" d="M294.168 160.812L288.255 168.827L291.92 166.995L294.168 160.812Z" fill="black"/>
<path d="M240.17 133.933C239.111 133.407 238.01 132.97 236.878 132.626C236.194 132.334 235.479 132.124 234.746 131.999C234.199 131.904 234.191 130.247 236.148 130.429C238.104 130.612 238.863 130.721 239.068 130.035L240.17 133.933Z" fill="#FFA8A7"/>
<path d="M300.03 170.382C299.964 171.513 298.796 183.522 297.344 187.727C297.243 188.007 297.084 188.263 296.878 188.478C296.672 188.693 296.423 188.863 296.147 188.975C293.628 190.055 292.854 191.245 291.241 192.713C290.153 193.705 289.27 193.91 289.379 194.26C289.552 194.645 289.861 194.951 290.248 195.118C290.634 195.286 291.069 195.302 291.467 195.165C292.355 194.882 293.206 194.493 294 194.005C293.294 195.52 292.35 196.912 291.204 198.129C288.591 200.925 288.357 202.728 293.227 203.108C296.271 203.349 298.84 201.648 301.592 195.078C302.447 192.668 303.154 190.208 303.709 187.712C304.753 183.624 306.221 176.331 306.98 172.484C307.307 170.826 307.28 169.117 306.899 167.469" fill="#FFA8A7"/>
<path d="M295.482 111.376C297.862 111.376 300.144 112.321 301.826 114.004C303.509 115.686 304.454 117.968 304.454 120.348V137.24C302.074 137.24 299.792 136.295 298.11 134.612C296.427 132.93 295.482 130.648 295.482 128.268V111.376Z" fill="#263238"/>
<path d="M282.744 194.53C282.744 194.53 279.408 192.187 276.21 189.471C276.21 189.471 279.437 193.742 281.32 195.311L279.269 214.007L282.744 194.53Z" fill="#263238"/>
</svg>
