<svg width="292" height="277" viewBox="0 0 292 277" fill="none" xmlns="http://www.w3.org/2000/svg">
<path d="M268.196 76.1861C266.789 65.7931 264.044 55.8266 258.268 46.7466C247.616 29.8773 228.344 19.6837 208.856 14.5149C192.504 10.1826 174.89 8.93053 158.579 13.4069C140.674 18.3208 125.648 29.6335 109.523 38.5031C97.72 44.9011 85.3974 50.3958 72.6729 54.9347C62.4062 58.6631 49.3596 60.7517 40.9208 67.8318C35.7559 72.2056 31.1762 77.164 27.2844 82.5959C11.5281 104.374 6.42391 132.196 8.82999 158.167C10.5294 176.261 15.7737 194.57 27.518 208.902C44.0277 229.018 72.3692 238.929 99.1106 236.431C129.479 233.594 158.241 216.381 188.422 220.514C203.448 222.57 217.826 229.893 232.94 228.531C247.838 227.19 260.587 217.451 269.574 206.121C276.781 197.019 281.576 186.011 282.019 174.543C282.504 162.139 276.582 150.827 273.61 138.982C268.441 118.279 271.028 97.0996 268.196 76.1861Z" fill="#92E3A9"/>
<path opacity="0.7" d="M268.196 76.1861C266.789 65.7931 264.044 55.8266 258.268 46.7466C247.616 29.8773 228.344 19.6837 208.856 14.5149C192.504 10.1826 174.89 8.93053 158.579 13.4069C140.674 18.3208 125.648 29.6335 109.523 38.5031C97.72 44.9011 85.3974 50.3958 72.6729 54.9347C62.4062 58.6631 49.3596 60.7517 40.9208 67.8318C35.7559 72.2056 31.1762 77.164 27.2844 82.5959C11.5281 104.374 6.42391 132.196 8.82999 158.167C10.5294 176.261 15.7737 194.57 27.518 208.902C44.0277 229.018 72.3692 238.929 99.1106 236.431C129.479 233.594 158.241 216.381 188.422 220.514C203.448 222.57 217.826 229.893 232.94 228.531C247.838 227.19 260.587 217.451 269.574 206.121C276.781 197.019 281.576 186.011 282.019 174.543C282.504 162.139 276.582 150.827 273.61 138.982C268.441 118.279 271.028 97.0996 268.196 76.1861Z" fill="white"/>
<path d="M195.599 174.643H280.828V171.596H195.599V174.643Z" stroke="#263238" stroke-linecap="round" stroke-linejoin="round"/>
<path d="M199.553 257.056H276.874V174.731H199.553V257.056Z" stroke="#263238" stroke-linecap="round" stroke-linejoin="round"/>
<path d="M202.338 196.426H274.188V178.565H202.338V196.426Z" stroke="#263238" stroke-linecap="round" stroke-linejoin="round"/>
<path d="M234.791 189.136H241.975V185.845H234.791V189.136Z" fill="#263238" stroke="#263238" stroke-linecap="round" stroke-linejoin="round"/>
<path d="M202.338 218.991H274.188V201.13H202.338V218.991Z" stroke="#263238" stroke-linecap="round" stroke-linejoin="round"/>
<path d="M234.791 211.706H241.975V208.415H234.791V211.706Z" fill="#263238" stroke="#263238" stroke-linecap="round" stroke-linejoin="round"/>
<path d="M202.338 241.655H274.188V223.794H202.338V241.655Z" stroke="#263238" stroke-linecap="round" stroke-linejoin="round"/>
<path d="M234.791 234.37H241.975V231.079H234.791V234.37Z" fill="#263238" stroke="#263238" stroke-linecap="round" stroke-linejoin="round"/>
<path d="M241.776 135.58C242.646 135.94 244.778 135.896 244.778 135.896C244.778 135.896 244.322 134.572 244.281 134.489C243.814 133.564 242.337 132.029 241.134 132.184C240.933 132.214 240.742 132.284 240.572 132.389C240.401 132.493 240.257 132.631 240.146 132.793C240.036 132.954 239.963 133.136 239.932 133.326C239.901 133.516 239.912 133.71 239.966 133.896C240.122 134.284 240.364 134.635 240.677 134.926C240.989 135.217 241.364 135.44 241.776 135.58Z" fill="#263238"/>
<path d="M263.308 136.024C263.308 136.024 263.694 134.683 263.705 134.594C263.857 133.575 263.513 131.525 262.421 131.021C262.236 130.942 262.036 130.902 261.833 130.902C261.631 130.902 261.431 130.942 261.246 131.021C261.061 131.099 260.896 131.214 260.762 131.357C260.627 131.5 260.525 131.669 260.464 131.852C260.367 132.256 260.363 132.675 260.453 133.08C260.542 133.486 260.724 133.868 260.984 134.201C261.504 134.943 263.302 136.024 263.308 136.024Z" fill="#263238"/>
<path d="M269.668 128.7C268.459 128.578 267.022 130.146 266.584 131.082C266.543 131.165 266.105 132.5 266.129 132.5C265.901 132.744 265.656 133.01 265.399 133.309C264.926 133.863 264.4 134.483 263.875 135.204C263.297 135.969 262.769 136.766 262.292 137.591C261.749 138.514 261.295 139.482 260.937 140.483C260.937 140.483 260.937 140.483 260.937 140.516C260.937 140.179 260.937 139.237 260.937 139.165C260.797 138.145 259.897 136.251 258.7 136.04C258.501 136.011 258.298 136.022 258.103 136.073C257.909 136.123 257.728 136.212 257.572 136.333C257.416 136.455 257.289 136.606 257.198 136.776C257.108 136.947 257.057 137.134 257.048 137.325C257.067 137.74 257.182 138.146 257.384 138.514C257.585 138.882 257.869 139.205 258.216 139.458C258.899 140.012 260.785 140.594 260.937 140.638C260.601 141.663 260.333 142.706 260.137 143.763C260.026 144.383 259.927 145.004 259.839 145.63C259.839 145.342 259.839 145.076 259.839 145.043C259.699 144.023 258.8 142.129 257.608 141.924C257.409 141.893 257.205 141.903 257.01 141.952C256.815 142.001 256.633 142.09 256.476 142.21C256.32 142.331 256.192 142.482 256.101 142.653C256.01 142.825 255.959 143.012 255.95 143.203C255.969 143.618 256.084 144.024 256.285 144.392C256.487 144.761 256.771 145.083 257.118 145.336C257.93 145.847 258.82 146.235 259.757 146.489C259.728 146.732 259.693 146.971 259.664 147.214C259.518 148.367 259.378 149.524 259.203 150.649C259.144 151.048 259.068 151.436 258.992 151.829C258.992 151.569 258.992 151.347 258.992 151.314C258.852 150.295 257.953 148.405 256.756 148.195C256.557 148.165 256.353 148.175 256.159 148.225C255.965 148.275 255.783 148.363 255.627 148.484C255.471 148.605 255.344 148.756 255.254 148.926C255.163 149.097 255.112 149.284 255.103 149.475C255.122 149.889 255.237 150.295 255.439 150.663C255.64 151.032 255.924 151.354 256.271 151.608C257.059 152.102 257.924 152.476 258.835 152.716C258.747 153.114 258.659 153.513 258.554 153.896C258.473 154.15 258.42 154.405 258.327 154.66C258.233 154.915 258.151 155.17 258.07 155.419C257.889 155.895 257.702 156.389 257.486 156.848C257.357 157.164 257.229 157.469 257.1 157.774C257.164 157.38 257.275 156.605 257.275 156.538C257.262 155.633 257.005 154.746 256.528 153.962C256.538 153.75 256.498 153.538 256.411 153.343C256.323 153.147 256.19 152.973 256.022 152.833C255.854 152.693 255.654 152.591 255.438 152.534C255.223 152.477 254.996 152.467 254.776 152.505C253.608 152.804 252.86 154.754 252.802 155.785C252.802 155.846 252.843 156.505 252.878 156.92C252.814 156.682 252.761 156.444 252.697 156.195C252.574 155.702 252.434 155.214 252.288 154.693C252.212 154.438 252.13 154.184 252.049 153.929C251.967 153.674 251.856 153.414 251.762 153.153C251.535 152.549 251.266 151.951 250.986 151.353C251.934 151.164 252.845 150.839 253.69 150.389C254.053 150.16 254.36 149.858 254.588 149.505C254.816 149.152 254.96 148.756 255.009 148.344C255.015 148.153 254.978 147.963 254.901 147.786C254.824 147.609 254.708 147.449 254.561 147.317C254.415 147.186 254.241 147.085 254.05 147.021C253.86 146.958 253.657 146.933 253.456 146.948C252.247 147.076 251.202 148.898 250.986 149.907C250.986 149.968 250.898 150.71 250.869 151.114C250.694 150.754 250.524 150.4 250.337 150.04C249.8 149.009 249.216 147.984 248.644 146.954C248.469 146.644 248.299 146.328 248.124 146.012C248.288 145.973 250.209 145.552 250.927 145.026C251.291 144.797 251.598 144.495 251.825 144.142C252.053 143.789 252.197 143.393 252.247 142.982C252.253 142.79 252.216 142.6 252.138 142.423C252.061 142.246 251.946 142.086 251.799 141.955C251.652 141.823 251.478 141.722 251.288 141.658C251.097 141.595 250.895 141.57 250.694 141.586C249.491 141.713 248.439 143.536 248.223 144.544C248.223 144.616 248.107 145.68 248.095 145.951C247.715 145.259 247.341 144.566 247.003 143.863C246.547 142.92 246.157 141.95 245.835 140.96C245.911 140.96 247.92 140.511 248.655 139.974C249.019 139.745 249.326 139.443 249.554 139.09C249.782 138.737 249.926 138.341 249.975 137.929C249.981 137.738 249.944 137.547 249.867 137.37C249.79 137.193 249.674 137.034 249.527 136.902C249.381 136.77 249.206 136.669 249.016 136.606C248.826 136.542 248.623 136.518 248.422 136.533C247.219 136.661 246.168 138.483 245.952 139.486C245.952 139.552 245.858 140.367 245.829 140.755H245.765C245.46 139.75 245.253 138.721 245.146 137.68C245.076 137.126 245.046 136.572 245.029 136.018C246.01 135.932 246.971 135.704 247.879 135.342C248.267 135.151 248.606 134.882 248.874 134.554C249.141 134.226 249.329 133.846 249.426 133.442C249.453 133.252 249.438 133.059 249.382 132.876C249.325 132.692 249.228 132.522 249.098 132.376C248.967 132.23 248.806 132.112 248.624 132.03C248.442 131.947 248.244 131.901 248.042 131.896C246.828 131.896 245.578 133.597 245.245 134.578C245.245 134.627 245.105 135.187 245.023 135.597C245.023 135.359 245.023 135.109 245.023 134.877C245.023 134.001 245.081 133.215 245.14 132.5C245.175 132.101 245.216 131.736 245.257 131.392C246.081 130.888 246.82 130.268 247.447 129.553C247.698 129.214 247.868 128.827 247.946 128.42C248.024 128.012 248.007 127.593 247.896 127.193C247.828 127.013 247.72 126.849 247.581 126.71C247.442 126.572 247.273 126.463 247.087 126.391C246.9 126.318 246.7 126.284 246.498 126.289C246.296 126.295 246.098 126.34 245.917 126.423C244.842 126.977 244.556 129.01 244.749 130.024C244.749 130.112 245.169 131.459 245.187 131.447C245.14 131.774 245.093 132.123 245.046 132.506C244.976 133.209 244.9 134.007 244.877 134.882C244.843 135.825 244.867 136.768 244.947 137.708C245.033 138.759 245.216 139.801 245.496 140.821V140.86C245.303 140.572 244.743 139.796 244.69 139.752C243.983 138.976 242.126 137.868 241.011 138.317C240.828 138.397 240.665 138.512 240.532 138.655C240.399 138.799 240.299 138.967 240.239 139.149C240.179 139.332 240.16 139.524 240.183 139.714C240.207 139.903 240.272 140.086 240.374 140.251C240.629 140.587 240.958 140.867 241.338 141.071C241.718 141.274 242.141 141.397 242.576 141.431C243.481 141.552 245.379 141.032 245.531 140.987C245.85 142.021 246.24 143.033 246.699 144.018C246.962 144.572 247.242 145.159 247.534 145.73L247.178 145.248C246.465 144.466 244.614 143.364 243.499 143.813C243.315 143.892 243.151 144.007 243.018 144.15C242.884 144.293 242.784 144.462 242.724 144.644C242.664 144.827 242.645 145.019 242.669 145.209C242.693 145.399 242.759 145.582 242.862 145.746C243.117 146.083 243.446 146.363 243.826 146.566C244.206 146.77 244.629 146.893 245.064 146.926C246.039 146.926 247.008 146.784 247.937 146.505C248.054 146.721 248.165 146.943 248.276 147.159C248.86 148.2 249.38 149.236 249.894 150.267C250.075 150.627 250.238 150.993 250.402 151.375C250.25 151.159 250.115 150.982 250.092 150.954C249.385 150.178 247.528 149.07 246.413 149.519C246.23 149.599 246.066 149.715 245.933 149.859C245.8 150.003 245.701 150.172 245.641 150.354C245.581 150.537 245.562 150.73 245.585 150.92C245.608 151.11 245.674 151.293 245.776 151.458C246.032 151.793 246.361 152.071 246.742 152.274C247.122 152.477 247.543 152.599 247.978 152.632C248.926 152.636 249.87 152.501 250.775 152.234C250.933 152.61 251.091 152.987 251.225 153.342C251.307 153.596 251.412 153.84 251.482 154.101L251.71 154.865C251.832 155.358 251.961 155.862 252.072 156.35C252.148 156.682 252.218 157.003 252.288 157.325C252.113 156.965 251.757 156.256 251.704 156.217C251.12 155.347 249.473 154.001 248.299 154.272C248.106 154.325 247.926 154.416 247.771 154.539C247.617 154.662 247.491 154.814 247.403 154.986C247.314 155.157 247.265 155.345 247.257 155.536C247.249 155.727 247.284 155.917 247.359 156.095C247.558 156.464 247.839 156.787 248.183 157.042C248.527 157.298 248.925 157.479 249.35 157.574C250.336 157.717 251.338 157.717 252.323 157.574C252.44 158.128 252.545 158.632 252.633 159.125C252.831 160.206 252.983 161.175 253.1 162.001H248.317V171.54H260.896V161.984H256.031C256.347 161.319 256.691 160.566 257.053 159.729C257.275 159.214 257.503 158.66 257.731 158.095C257.959 158.139 259.827 158.499 260.698 158.311C261.128 158.248 261.539 158.096 261.901 157.866C262.263 157.636 262.568 157.334 262.794 156.981C262.885 156.81 262.936 156.623 262.945 156.432C262.953 156.241 262.919 156.05 262.845 155.872C262.771 155.694 262.657 155.533 262.513 155.4C262.368 155.266 262.195 155.163 262.006 155.098C260.838 154.727 259.086 155.968 258.455 156.799C258.414 156.843 258.064 157.419 257.871 157.785C257.964 157.552 258.058 157.325 258.145 157.087C258.332 156.61 258.502 156.128 258.683 155.618C258.765 155.364 258.84 155.109 258.922 154.854C259.004 154.599 259.068 154.3 259.138 154.056C259.296 153.43 259.424 152.793 259.535 152.145C260.434 152.488 261.384 152.696 262.35 152.76C262.787 152.76 263.218 152.67 263.614 152.495C264.009 152.319 264.36 152.064 264.64 151.746C264.756 151.59 264.836 151.412 264.875 151.224C264.914 151.036 264.911 150.842 264.865 150.656C264.82 150.469 264.734 150.294 264.613 150.141C264.491 149.988 264.337 149.861 264.161 149.768C263.08 149.242 261.147 150.217 260.376 150.943C260.33 150.987 259.839 151.563 259.576 151.89C259.641 151.497 259.705 151.109 259.757 150.716C259.909 149.574 260.02 148.411 260.143 147.259C260.178 146.904 260.219 146.55 260.26 146.195C260.411 146.25 262.263 146.904 263.18 146.843C263.985 146.788 265.002 146.511 265.469 145.829C265.584 145.672 265.663 145.494 265.701 145.306C265.739 145.118 265.735 144.925 265.689 144.738C265.644 144.552 265.557 144.377 265.436 144.224C265.314 144.071 265.161 143.944 264.984 143.852C263.91 143.298 261.971 144.295 261.206 145.02C261.147 145.076 260.441 145.912 260.277 146.128C260.365 145.347 260.458 144.572 260.581 143.813C260.745 142.786 260.979 141.77 261.282 140.771C261.352 140.771 263.279 141.486 264.202 141.425C264.638 141.424 265.069 141.333 265.464 141.158C265.859 140.983 266.21 140.728 266.491 140.411C266.607 140.255 266.687 140.077 266.726 139.889C266.765 139.701 266.762 139.507 266.717 139.321C266.672 139.134 266.585 138.959 266.464 138.806C266.343 138.653 266.189 138.526 266.012 138.433C264.932 137.907 262.999 138.877 262.228 139.602C262.175 139.652 261.644 140.289 261.393 140.594H261.334C261.666 139.596 262.092 138.628 262.607 137.702C262.882 137.192 263.191 136.716 263.472 136.262C264.342 136.701 265.277 137.013 266.246 137.187C266.68 137.23 267.119 137.182 267.533 137.049C267.946 136.915 268.324 136.697 268.64 136.411C268.773 136.268 268.872 136.099 268.932 135.917C268.991 135.735 269.01 135.542 268.986 135.353C268.962 135.163 268.897 134.98 268.794 134.816C268.691 134.652 268.553 134.511 268.389 134.4C267.373 133.763 265.34 134.528 264.494 135.17C264.447 135.204 264.021 135.608 263.711 135.907C263.851 135.702 263.985 135.486 264.126 135.298C264.628 134.572 265.142 133.935 265.603 133.375C265.866 133.06 266.111 132.783 266.339 132.522C267.328 132.531 268.312 132.398 269.259 132.129C269.666 131.98 270.034 131.748 270.337 131.449C270.64 131.15 270.87 130.792 271.011 130.4C271.066 130.203 271.072 129.996 271.031 129.796C270.99 129.595 270.901 129.406 270.772 129.243C270.643 129.079 270.477 128.945 270.285 128.851C270.094 128.757 269.883 128.705 269.668 128.7ZM256.3 159.463C255.868 160.416 255.447 161.264 255.085 161.984H253.806C253.672 161.131 253.491 160.117 253.222 158.981C253.111 158.427 252.977 157.873 252.837 157.269C253.404 157.051 253.957 156.803 254.495 156.527C255.228 157.123 256.043 157.621 256.919 158.006C256.732 158.51 256.516 158.998 256.3 159.463Z" fill="#263238"/>
<path d="M16.6265 175.596L23.4009 237.162" stroke="#263238" stroke-width="2" stroke-miterlimit="10"/>
<path d="M22.3087 225.378L19.2368 222.303" stroke="#263238" stroke-width="2" stroke-miterlimit="10"/>
<path d="M20.1714 223.223C20.1638 222.753 20.0511 222.289 19.8407 221.863C19.6303 221.437 19.327 221.059 18.9508 220.752C18.1624 220.087 14.0102 218.431 13.6189 219.816C13.1926 221.323 17.4383 224.281 20.1714 223.223Z" fill="#92E3A9" stroke="#263238" stroke-miterlimit="10"/>
<path d="M20.1712 223.223L16.2234 220.891" stroke="#263238" stroke-width="0.5" stroke-miterlimit="10"/>
<path d="M23.0797 232.381L20.0078 229.306" stroke="#263238" stroke-width="2" stroke-miterlimit="10"/>
<path d="M20.9421 230.225C20.9346 229.755 20.8218 229.292 20.6114 228.866C20.401 228.44 20.0977 228.061 19.7216 227.755C18.9332 227.09 14.7809 225.433 14.3897 226.818C13.9633 228.325 18.209 231.284 20.9421 230.225Z" fill="#92E3A9" stroke="#263238" stroke-miterlimit="10"/>
<path d="M20.9422 230.225L16.9944 227.893" stroke="#263238" stroke-width="0.5" stroke-miterlimit="10"/>
<path d="M20.4283 208.292L17.3564 205.218" stroke="#263238" stroke-width="2" stroke-miterlimit="10"/>
<path d="M18.2908 206.137C18.2832 205.667 18.1705 205.204 17.9601 204.778C17.7497 204.352 17.4464 203.973 17.0702 203.667C16.2818 202.996 12.1296 201.345 11.7383 202.73C11.312 204.237 15.5576 207.196 18.2908 206.137Z" fill="#92E3A9" stroke="#263238" stroke-miterlimit="10"/>
<path d="M18.2909 206.138L14.343 203.805" stroke="#263238" stroke-width="0.5" stroke-miterlimit="10"/>
<path d="M21.1993 215.295L18.1274 212.221" stroke="#263238" stroke-width="2" stroke-miterlimit="10"/>
<path d="M19.0616 213.14C19.054 212.67 18.9413 212.207 18.7309 211.781C18.5205 211.355 18.2172 210.976 17.8411 210.67C17.0527 209.999 12.9004 208.348 12.5091 209.733C12.0828 211.24 16.3519 214.199 19.0616 213.14Z" fill="#92E3A9" stroke="#263238" stroke-miterlimit="10"/>
<path d="M19.0619 213.14L15.114 210.808" stroke="#263238" stroke-width="0.5" stroke-miterlimit="10"/>
<path d="M19.1785 196.919L16.1067 193.839" stroke="#263238" stroke-width="2" stroke-miterlimit="10"/>
<path d="M17.041 194.764C17.035 194.293 16.9224 193.828 16.7108 193.402C16.4992 192.976 16.1936 192.598 15.8146 192.293C15.0262 191.623 10.8798 189.972 10.4885 191.357C10.0622 192.864 14.3079 195.822 17.041 194.764Z" fill="#92E3A9" stroke="#263238" stroke-miterlimit="10"/>
<path d="M17.0411 194.764L13.0933 192.432" stroke="#263238" stroke-width="0.5" stroke-miterlimit="10"/>
<path d="M17.9229 185.496L14.8511 182.416" stroke="#263238" stroke-width="2" stroke-miterlimit="10"/>
<path d="M15.768 183.341C15.7619 182.869 15.6493 182.405 15.4377 181.979C15.2262 181.553 14.9205 181.174 14.5416 180.87C13.7532 180.199 9.60677 178.543 9.21549 179.933C8.80085 181.44 13.0465 184.399 15.768 183.341Z" fill="#92E3A9" stroke="#263238" stroke-miterlimit="10"/>
<path d="M15.7855 183.34L11.8318 181.002" stroke="#263238" stroke-width="0.5" stroke-miterlimit="10"/>
<path d="M21.7949 221.234L24.1251 217.622" stroke="#263238" stroke-width="2" stroke-miterlimit="10"/>
<path d="M23.4126 218.708C23.3195 218.247 23.3301 217.773 23.4438 217.317C23.5576 216.86 23.7718 216.432 24.0725 216.06C24.6974 215.251 28.3941 212.819 29.0833 214.099C29.8308 215.506 26.3209 219.212 23.4126 218.708Z" fill="#92E3A9" stroke="#263238" stroke-miterlimit="10"/>
<path d="M23.4126 218.708L26.9692 215.483" stroke="#263238" stroke-width="0.5" stroke-miterlimit="10"/>
<path d="M19.7625 202.808L22.0985 199.196" stroke="#263238" stroke-width="2" stroke-miterlimit="10"/>
<path d="M21.3862 200.282C21.2922 199.82 21.3024 199.345 21.4161 198.888C21.5299 198.43 21.7446 198.001 22.0461 197.628C22.671 196.819 26.3677 194.387 27.0568 195.667C27.8043 197.057 24.2945 200.786 21.3862 200.282Z" fill="#92E3A9" stroke="#263238" stroke-miterlimit="10"/>
<path d="M21.386 200.282L24.9425 197.058" stroke="#263238" stroke-width="0.5" stroke-miterlimit="10"/>
<path d="M18.8748 194.714L21.2108 191.102" stroke="#263238" stroke-width="2" stroke-miterlimit="10"/>
<path d="M20.4984 192.188C20.4027 191.726 20.4115 191.25 20.5243 190.792C20.637 190.333 20.8512 189.903 21.1525 189.529C21.7832 188.72 25.4799 186.288 26.1632 187.568C26.9107 188.958 23.4009 192.687 20.4984 192.188Z" fill="#92E3A9" stroke="#263238" stroke-miterlimit="10"/>
<path d="M20.4983 192.188L24.0549 188.964" stroke="#263238" stroke-width="0.5" stroke-miterlimit="10"/>
<path d="M17.5667 182.842L19.9027 179.23" stroke="#263238" stroke-width="2" stroke-miterlimit="10"/>
<path d="M19.1903 180.316C19.0954 179.853 19.1052 179.377 19.219 178.919C19.3327 178.46 19.5479 178.03 19.8502 177.656C20.4751 176.848 24.1718 174.415 24.8609 175.695C25.6085 177.086 22.0986 180.814 19.1903 180.316Z" fill="#92E3A9" stroke="#263238" stroke-miterlimit="10"/>
<path d="M19.1902 180.316L22.7467 177.091" stroke="#263238" stroke-width="0.5" stroke-miterlimit="10"/>
<path d="M16.568 175.252C16.4731 174.79 16.4829 174.314 16.5967 173.855C16.7104 173.397 16.9256 172.966 17.2279 172.593C17.8528 171.784 21.5495 169.352 22.2386 170.632C22.9861 172.022 19.4763 175.751 16.568 175.252Z" fill="#92E3A9" stroke="#263238" stroke-miterlimit="10"/>
<path d="M16.5681 175.252L20.1247 172.028" stroke="#263238" stroke-width="0.5" stroke-miterlimit="10"/>
<path d="M16.7782 175.391C16.2848 175.435 15.787 175.379 15.3179 175.227C14.8488 175.075 14.4189 174.831 14.0568 174.51C13.2801 173.834 11.1368 170.078 12.5267 169.574C14.0626 168.997 17.6075 172.704 16.7782 175.391Z" fill="#92E3A9" stroke="#263238" stroke-miterlimit="10"/>
<path d="M16.7784 175.39L13.7708 171.695" stroke="#263238" stroke-width="0.5" stroke-miterlimit="10"/>
<path d="M34.4911 184.072L27.7576 245.643" stroke="#263238" stroke-width="2" stroke-miterlimit="10"/>
<path d="M29.2466 233.899L26.9106 230.292" stroke="#263238" stroke-width="2" stroke-miterlimit="10"/>
<path d="M27.6232 231.372C27.7172 230.911 27.707 230.436 27.5932 229.978C27.4795 229.521 27.2648 229.092 26.9633 228.719C26.3326 227.91 22.6358 225.483 21.9467 226.758C21.205 228.154 24.7149 231.876 27.6232 231.372Z" fill="#92E3A9" stroke="#263238" stroke-miterlimit="10"/>
<path d="M27.6231 231.372L24.2651 228.32" stroke="#263238" stroke-width="0.5" stroke-miterlimit="10"/>
<path d="M31.1155 216.813L28.7795 213.201" stroke="#263238" stroke-width="2" stroke-miterlimit="10"/>
<path d="M29.4919 214.287C29.5868 213.824 29.577 213.348 29.4632 212.89C29.3494 212.431 29.1343 212.001 28.832 211.628C28.2071 210.819 24.5045 208.387 23.8212 209.666C23.0737 211.074 26.5836 214.791 29.4919 214.287Z" fill="#92E3A9" stroke="#263238" stroke-miterlimit="10"/>
<path d="M29.492 214.287L26.134 211.229" stroke="#263238" stroke-width="0.5" stroke-miterlimit="10"/>
<path d="M30.3504 223.816L28.0144 220.204" stroke="#263238" stroke-width="2" stroke-miterlimit="10"/>
<path d="M28.727 221.29C28.821 220.828 28.8108 220.353 28.697 219.896C28.5833 219.438 28.3685 219.009 28.067 218.636C27.4363 217.827 23.7396 215.395 23.0505 216.675C22.3088 218.065 25.8186 221.794 28.727 221.29Z" fill="#92E3A9" stroke="#263238" stroke-miterlimit="10"/>
<path d="M28.7269 221.29L25.3689 218.231" stroke="#263238" stroke-width="0.5" stroke-miterlimit="10"/>
<path d="M32.3594 205.44L30.0234 201.828" stroke="#263238" stroke-width="2" stroke-miterlimit="10"/>
<path d="M30.7358 202.914C30.8307 202.451 30.8209 201.975 30.7071 201.517C30.5933 201.058 30.3782 200.628 30.0759 200.254C29.451 199.451 25.7484 197.019 25.0651 198.299C24.3176 199.689 27.8275 203.418 30.7358 202.914Z" fill="#92E3A9" stroke="#263238" stroke-miterlimit="10"/>
<path d="M30.7359 202.914L27.3779 199.855" stroke="#263238" stroke-width="0.5" stroke-miterlimit="10"/>
<path d="M33.6092 194.016L31.2732 190.404" stroke="#263238" stroke-width="2" stroke-miterlimit="10"/>
<path d="M31.9858 191.49C32.0806 191.028 32.0709 190.551 31.9571 190.093C31.8433 189.634 31.6282 189.204 31.3259 188.831C30.701 188.022 26.9984 185.595 26.3151 186.875C25.5676 188.266 29.0775 191.988 31.9858 191.49Z" fill="#92E3A9" stroke="#263238" stroke-miterlimit="10"/>
<path d="M31.9857 191.49L28.6277 188.432" stroke="#263238" stroke-width="0.5" stroke-miterlimit="10"/>
<path d="M29.6379 229.744L32.7098 226.669" stroke="#263238" stroke-width="2" stroke-miterlimit="10"/>
<path d="M31.7754 227.588C31.783 227.118 31.8957 226.655 32.1061 226.229C32.3165 225.803 32.6198 225.424 32.996 225.117C33.7844 224.453 37.9307 222.791 38.3279 224.176C38.7542 225.683 34.5085 228.646 31.7754 227.588Z" fill="#92E3A9" stroke="#263238" stroke-miterlimit="10"/>
<path d="M31.7754 227.589L35.9568 225.129" stroke="#263238" stroke-width="0.5" stroke-miterlimit="10"/>
<path d="M31.6528 211.317L34.7247 208.243" stroke="#263238" stroke-width="2" stroke-miterlimit="10"/>
<path d="M33.7903 209.162C33.8015 208.69 33.9187 208.225 34.1342 207.799C34.3497 207.373 34.6585 206.996 35.04 206.692C35.8284 206.021 39.9748 204.365 40.372 205.75C40.7691 207.257 36.5292 210.221 33.7903 209.162Z" fill="#92E3A9" stroke="#263238" stroke-miterlimit="10"/>
<path d="M33.7903 209.162L37.9717 206.703" stroke="#263238" stroke-width="0.5" stroke-miterlimit="10"/>
<path d="M32.5405 203.218L35.6124 200.144" stroke="#263238" stroke-width="2" stroke-miterlimit="10"/>
<path d="M34.678 201.063C34.6856 200.593 34.7983 200.129 35.0087 199.703C35.2191 199.277 35.5224 198.899 35.8985 198.592C36.6869 197.927 40.8333 196.265 41.2246 197.65C41.6568 199.163 37.4111 202.121 34.678 201.063Z" fill="#92E3A9" stroke="#263238" stroke-miterlimit="10"/>
<path d="M34.678 201.063L38.8594 198.603" stroke="#263238" stroke-width="0.5" stroke-miterlimit="10"/>
<path d="M33.8369 191.351L36.9088 188.271" stroke="#263238" stroke-width="2" stroke-miterlimit="10"/>
<path d="M35.9744 189.191C35.9786 188.717 36.0898 188.249 36.3003 187.819C36.5108 187.389 36.8158 187.007 37.1949 186.698C37.9833 186.033 42.1297 184.371 42.5268 185.762C42.9532 187.291 38.7133 190.249 35.9744 189.191Z" fill="#92E3A9" stroke="#263238" stroke-miterlimit="10"/>
<path d="M35.9744 189.191L40.1558 186.731" stroke="#263238" stroke-width="0.5" stroke-miterlimit="10"/>
<path d="M34.5085 183.728C34.5161 183.258 34.6288 182.795 34.8392 182.369C35.0496 181.943 35.3529 181.564 35.7291 181.258C36.5175 180.587 40.6639 178.931 41.061 180.316C41.464 181.823 37.2475 184.787 34.5085 183.728Z" fill="#92E3A9" stroke="#263238" stroke-miterlimit="10"/>
<path d="M34.5085 183.728L38.69 181.269" stroke="#263238" stroke-width="0.5" stroke-miterlimit="10"/>
<path d="M34.6837 183.928C34.1908 183.874 33.7157 183.721 33.2905 183.478C32.8654 183.235 32.5001 182.909 32.2193 182.521C31.6002 181.706 30.2979 177.623 31.7929 177.396C33.4165 177.119 36.0795 181.435 34.6837 183.928Z" fill="#92E3A9" stroke="#263238" stroke-miterlimit="10"/>
<path d="M34.6838 183.9L32.5405 179.701" stroke="#263238" stroke-width="0.5" stroke-miterlimit="10"/>
<path d="M26.7705 158.998V236.862" stroke="#263238" stroke-width="2" stroke-miterlimit="10"/>
<path d="M26.8406 225.156L24.1191 221.793" stroke="#263238" stroke-width="2" stroke-miterlimit="10"/>
<path d="M24.9484 222.802C24.9926 222.333 24.9311 221.86 24.768 221.415C24.6049 220.97 24.3439 220.563 24.0023 220.221C23.2898 219.484 19.3303 217.451 18.8047 218.769C18.2149 220.221 22.1102 223.583 24.9484 222.802Z" fill="#92E3A9" stroke="#263238" stroke-miterlimit="10"/>
<path d="M24.9485 222.802L21.2751 220.093" stroke="#263238" stroke-width="0.5" stroke-miterlimit="10"/>
<path d="M26.8406 210.52L24.1191 207.163" stroke="#263238" stroke-width="2" stroke-miterlimit="10"/>
<path d="M24.9484 208.171C24.9926 207.701 24.9311 207.229 24.768 206.783C24.6049 206.338 24.3439 205.931 24.0023 205.589C23.2898 204.847 19.3303 202.791 18.8047 204.132C18.2149 205.589 22.1102 208.952 24.9484 208.171Z" fill="#92E3A9" stroke="#263238" stroke-miterlimit="10"/>
<path d="M24.9485 208.171L21.2751 205.456" stroke="#263238" stroke-width="0.5" stroke-miterlimit="10"/>
<path d="M26.8406 193.346L24.1191 189.983" stroke="#263238" stroke-width="2" stroke-miterlimit="10"/>
<path d="M24.9484 190.991C24.9926 190.522 24.9311 190.049 24.768 189.604C24.6049 189.159 24.3439 188.752 24.0023 188.41C23.2898 187.667 19.3303 185.64 18.8047 186.953C18.2149 188.41 22.1102 191.773 24.9484 190.991Z" fill="#92E3A9" stroke="#263238" stroke-miterlimit="10"/>
<path d="M24.9485 190.991L21.2751 188.277" stroke="#263238" stroke-width="0.5" stroke-miterlimit="10"/>
<path d="M26.8406 181.906L24.1191 178.543" stroke="#263238" stroke-width="2" stroke-miterlimit="10"/>
<path d="M24.9484 179.551C24.9918 179.083 24.9299 178.611 24.7668 178.167C24.6037 177.723 24.3431 177.316 24.0023 176.975C23.2898 176.233 19.3303 174.177 18.8047 175.518C18.2149 176.975 22.1102 180.338 24.9484 179.551Z" fill="#92E3A9" stroke="#263238" stroke-miterlimit="10"/>
<path d="M24.9485 179.551L21.2751 176.842" stroke="#263238" stroke-width="0.5" stroke-miterlimit="10"/>
<path d="M26.8406 170.421L24.1191 167.059" stroke="#263238" stroke-width="2" stroke-miterlimit="10"/>
<path d="M24.9484 168.067C24.9918 167.598 24.9299 167.126 24.7668 166.682C24.6037 166.238 24.3431 165.832 24.0023 165.491C23.2898 164.748 19.3303 162.693 18.8047 164.034C18.2149 165.491 22.1102 168.853 24.9484 168.067Z" fill="#92E3A9" stroke="#263238" stroke-miterlimit="10"/>
<path d="M24.9485 168.067L21.2751 165.358" stroke="#263238" stroke-width="0.5" stroke-miterlimit="10"/>
<path d="M26.7764 229.622L29.4978 226.259" stroke="#263238" stroke-width="2" stroke-miterlimit="10"/>
<path d="M28.6685 227.267C28.6251 226.799 28.687 226.327 28.8501 225.883C29.0132 225.439 29.2737 225.033 29.6145 224.691C30.327 223.949 34.2865 221.894 34.8121 223.234C35.402 224.691 31.5359 228.054 28.6685 227.267Z" fill="#92E3A9" stroke="#263238" stroke-miterlimit="10"/>
<path d="M28.6685 227.267L32.5579 224.414" stroke="#263238" stroke-width="0.5" stroke-miterlimit="10"/>
<path d="M26.7764 206.348L29.4978 202.991" stroke="#263238" stroke-width="2" stroke-miterlimit="10"/>
<path d="M28.6684 203.999C28.6242 203.53 28.6857 203.057 28.8488 202.612C29.0119 202.167 29.2729 201.76 29.6145 201.418C30.327 200.675 34.2865 198.648 34.8121 199.961C35.402 201.418 31.5359 204.78 28.6684 203.999Z" fill="#92E3A9" stroke="#263238" stroke-miterlimit="10"/>
<path d="M28.6685 203.999L32.5579 201.141" stroke="#263238" stroke-width="0.5" stroke-miterlimit="10"/>
<path d="M26.7764 194.864L29.4978 191.501" stroke="#263238" stroke-width="2" stroke-miterlimit="10"/>
<path d="M28.6685 192.509C28.6251 192.041 28.687 191.569 28.8501 191.125C29.0132 190.681 29.2737 190.275 29.6145 189.933C30.327 189.191 34.2865 187.163 34.8121 188.476C35.402 189.933 31.5359 193.296 28.6685 192.509Z" fill="#92E3A9" stroke="#263238" stroke-miterlimit="10"/>
<path d="M28.6685 192.509L32.5579 189.656" stroke="#263238" stroke-width="0.5" stroke-miterlimit="10"/>
<path d="M26.7764 179.684L29.4978 176.321" stroke="#263238" stroke-width="2" stroke-miterlimit="10"/>
<path d="M28.6685 177.33C28.6251 176.861 28.687 176.39 28.8501 175.945C29.0132 175.501 29.2737 175.095 29.6145 174.754C30.327 174.011 34.2865 171.956 34.8121 173.297C35.402 174.754 31.5359 178.116 28.6685 177.33Z" fill="#92E3A9" stroke="#263238" stroke-miterlimit="10"/>
<path d="M28.6685 177.33L32.5579 174.471" stroke="#263238" stroke-width="0.5" stroke-miterlimit="10"/>
<path d="M26.7764 167.746L29.4978 164.383" stroke="#263238" stroke-width="2" stroke-miterlimit="10"/>
<path d="M28.6684 165.396C28.6242 164.927 28.6857 164.454 28.8488 164.009C29.0119 163.564 29.2729 163.157 29.6145 162.815C30.327 162.072 34.2865 160.017 34.8121 161.358C35.402 162.815 31.5359 166.2 28.6684 165.396Z" fill="#92E3A9" stroke="#263238" stroke-miterlimit="10"/>
<path d="M28.6685 165.396L32.5579 162.538" stroke="#263238" stroke-width="0.5" stroke-miterlimit="10"/>
<path d="M26.6187 160.106C26.5719 159.638 26.6317 159.165 26.7939 158.721C26.9561 158.277 27.217 157.87 27.559 157.53C28.2715 156.788 32.231 154.76 32.7624 156.073C33.3523 157.524 29.4511 160.887 26.6187 160.106Z" fill="#92E3A9" stroke="#263238" stroke-miterlimit="10"/>
<path d="M26.6187 160.1L30.5081 157.242" stroke="#263238" stroke-width="0.5" stroke-miterlimit="10"/>
<path d="M26.8056 160.261C26.3094 160.253 25.8205 160.145 25.3715 159.945C24.9225 159.744 24.5235 159.455 24.201 159.097C23.5002 158.35 21.7598 154.411 23.2198 154.039C24.8083 153.635 27.9269 157.668 26.8056 160.261Z" fill="#92E3A9" stroke="#263238" stroke-miterlimit="10"/>
<path d="M26.8056 160.261L24.2185 156.289" stroke="#263238" stroke-width="0.5" stroke-miterlimit="10"/>
<path d="M30.1519 257.056H21.4561L20.3699 236.231H31.2381L30.1519 257.056Z" fill="#263238" stroke="#263238" stroke-miterlimit="10"/>
<path d="M67.2066 97.6036H14.9854V18.7417H79.64V97.6036H70.5997" stroke="#263238" stroke-miterlimit="10"/>
<path d="M77.2981 21.6001H17.333V94.7447H77.2981V21.6001Z" stroke="#263238" stroke-miterlimit="10"/>
<path d="M29.3459 41.6328C30.4072 42.5644 31.5414 43.4182 32.739 44.1868C46.3053 52.9178 69.3149 48.785 77.0646 61.189" stroke="#263238" stroke-miterlimit="10"/>
<path d="M21.3567 21.8994C21.0317 25.1668 21.4233 28.4627 22.5068 31.5795C23.5902 34.6963 25.3421 37.5666 27.6522 40.0097" stroke="#263238" stroke-miterlimit="10"/>
<path d="M26.4961 62.1918C33.1128 58.8678 41.6801 56.5244 46.0659 63.2555C51.1526 71.0724 27.6524 84.8615 27.6524 94.7338" stroke="#263238" stroke-miterlimit="10"/>
<path d="M17.4849 67.8537C19.7503 66.1173 22.1516 64.5468 24.6681 63.1558" stroke="#263238" stroke-miterlimit="10"/>
<path d="M48.7288 21.8994C48.7288 21.8994 57.4479 34.7688 77.3097 31.3174" stroke="#263238" stroke-miterlimit="10"/>
<path d="M51.3335 34.5363C51.3736 34.8414 51.3931 35.1486 51.3919 35.456C51.389 37.3052 50.6729 39.0895 49.3788 40.4725C48.0846 41.8554 46.3018 42.7413 44.3665 42.9632C42.4312 43.1851 40.4772 42.7276 38.873 41.677C37.2688 40.6264 36.1252 39.0552 35.658 37.2599C35.1908 35.4646 35.4322 33.5691 36.3366 31.931C37.2411 30.2928 38.7462 29.0252 40.568 28.3672C42.3898 27.7092 44.4024 27.7063 46.2263 28.359C48.0502 29.0117 49.5594 30.2749 50.4691 31.9104" stroke="#263238" stroke-miterlimit="10"/>
<path d="M71.248 45.6828C71.2445 46.3869 71.0212 47.0742 70.6062 47.6579C70.1913 48.2417 69.6032 48.6957 68.9164 48.9626C68.2296 49.2295 67.4749 49.2973 66.7475 49.1575C66.02 49.0178 65.3526 48.6767 64.8294 48.1773C64.3062 47.6779 63.9508 47.0426 63.808 46.3517C63.6652 45.6608 63.7414 44.9452 64.027 44.2954C64.3126 43.6455 64.7948 43.0905 65.4127 42.7005C66.0306 42.3105 66.7565 42.1029 67.4987 42.104C67.993 42.104 68.4825 42.1967 68.9389 42.3768C69.3953 42.557 69.8097 42.8209 70.1581 43.1536C70.5066 43.4862 70.7823 43.8809 70.9693 44.315C71.1564 44.749 71.2511 45.2139 71.248 45.6828Z" stroke="#263238" stroke-miterlimit="10"/>
<path d="M71.3005 69.7095C73.4156 70.2314 75.3887 71.1758 77.088 72.4795" stroke="#263238" stroke-miterlimit="10"/>
<path d="M56.9165 94.7894C54.6162 92.7882 53.0064 90.1748 52.2978 87.2913C51.5892 84.4078 51.8148 81.3885 52.9451 78.6286C54.0754 75.8688 56.0577 73.4969 58.6325 71.8235C61.2074 70.1501 64.2548 69.2531 67.376 69.25C67.6797 69.25 67.96 69.25 68.2695 69.25" stroke="#263238" stroke-miterlimit="10"/>
<path d="M188.048 257.056H280.904" stroke="#263238" stroke-miterlimit="10"/>
<path d="M9.34399 257.056H183.376" stroke="#263238" stroke-miterlimit="10"/>
<path d="M230.99 23.5454H113.121V230.68H230.99V23.5454Z" fill="white"/>
<path d="M230.99 195.357H113.121V230.68H230.99V195.357Z" fill="#DEDEDE"/>
<path d="M234.529 64.2974C234.914 64.2974 235.284 64.1521 235.557 63.8934C235.83 63.6347 235.983 63.2838 235.983 62.918V49.1068C235.983 48.7409 235.83 48.39 235.557 48.1313C235.284 47.8726 234.914 47.7273 234.529 47.7273C234.437 47.7189 234.345 47.7189 234.254 47.7273V21.9165C234.254 19.5553 233.265 17.2908 231.505 15.6212C229.745 13.9516 227.358 13.0137 224.869 13.0137H121.414C120.181 13.0129 118.96 13.2427 117.82 13.6898C116.681 14.1368 115.646 14.7925 114.774 15.6193C113.902 16.446 113.21 17.4277 112.738 18.5082C112.266 19.5887 112.023 20.7469 112.023 21.9165V230.381C112.023 232.744 113.012 235.01 114.773 236.68C116.535 238.351 118.923 239.289 121.414 239.289H224.869C227.359 239.288 229.746 238.349 231.506 236.678C233.266 235.008 234.254 232.743 234.254 230.381V103.559C234.345 103.568 234.437 103.568 234.529 103.559C234.915 103.558 235.285 103.411 235.557 103.152C235.83 102.892 235.983 102.541 235.983 102.174V88.3909C235.983 88.0251 235.83 87.6742 235.557 87.4155C235.284 87.1568 234.914 87.0115 234.529 87.0115C234.436 87.0122 234.344 87.0214 234.254 87.0392V83.9146C234.344 83.9323 234.436 83.9416 234.529 83.9423C234.914 83.9408 235.283 83.795 235.555 83.5366C235.828 83.2783 235.981 82.9282 235.983 82.5628V68.7461C235.981 68.3807 235.828 68.0306 235.555 67.7723C235.283 67.5139 234.914 67.3681 234.529 67.3666C234.436 67.3673 234.344 67.3766 234.254 67.3943V64.2642C234.344 64.2838 234.436 64.2949 234.529 64.2974ZM228.817 225.86H117.46V28.3761H228.817V225.86Z" fill="#263238"/>
<path d="M225.027 30.4258H215.794V35.229H225.027V30.4258Z" stroke="#263238" stroke-width="0.821067" stroke-linecap="round" stroke-linejoin="round"/>
<path d="M222.995 30.4258H215.794V35.229H222.995V30.4258Z" fill="#263238" stroke="#263238" stroke-width="0.725073" stroke-linecap="round" stroke-linejoin="round"/>
<path d="M226.312 31.772H225.01V33.8883H226.312V31.772Z" fill="#263238" stroke="#263238" stroke-width="0.725073" stroke-linecap="round" stroke-linejoin="round"/>
<path d="M121.659 31.916H119.965V34.6694H121.659V31.916Z" fill="#263238" stroke="#263238" stroke-width="0.883086" stroke-linecap="round" stroke-linejoin="round"/>
<path d="M124.322 30.9521H122.628V34.6695H124.322V30.9521Z" fill="#263238" stroke="#263238" stroke-width="0.883086" stroke-linecap="round" stroke-linejoin="round"/>
<path d="M126.979 29.8052H125.286V34.6693H126.979V29.8052Z" fill="#263238" stroke="#263238" stroke-width="0.883086" stroke-linecap="round" stroke-linejoin="round"/>
<path d="M226.189 37.8994H119.253V64.5579H226.189V37.8994Z" fill="#92E3A9"/>
<path d="M146.28 41.7388V61.3116" stroke="white" stroke-miterlimit="10"/>
<path d="M173.53 41.7388V61.3116" stroke="white" stroke-miterlimit="10"/>
<path d="M200.785 41.7388V61.3116" stroke="white" stroke-miterlimit="10"/>
<path opacity="0.15" d="M233.291 103.559C233.382 103.568 233.474 103.568 233.565 103.559C233.951 103.558 234.321 103.411 234.594 103.152C234.866 102.892 235.019 102.541 235.019 102.174V97.2271L227.854 109.21V225.86H158.141L150.088 239.289H223.9C226.39 239.289 228.779 238.351 230.54 236.68C232.301 235.009 233.291 232.744 233.291 230.381V103.559Z" fill="white"/>
<path d="M168.618 156.466V150.134H171.953V146.949H168.63C168.63 145.891 168.63 144.827 168.63 143.769H175.317V140.605H178.657V143.752H182.009V137.392H192.054V140.556H195.377V137.392H192.042V134.201H185.344V127.897H175.293V131.066H168.63V137.42H171.947V140.589H168.612V143.763H165.272V140.583H155.233V137.42H165.272V112.002H168.63C168.63 115.061 168.63 118.119 168.63 121.177V121.52H171.976V115.188H175.311V121.531H178.675V124.695H195.412V127.863H198.764V131.06H195.43V134.246H198.753V140.605H202.111V146.954H198.788V153.292H202.064V156.466H208.751V159.635H198.753V165.979H195.412V162.81H188.696V159.635H185.356V156.466H192.019V153.292H175.323V156.45H168.618V156.466ZM188.696 146.938V143.78H185.373V146.932H188.708V150.095H195.377V146.938H188.696ZM181.992 146.938H178.704V150.079H182.015L181.992 146.938ZM188.714 131.021H192.025V127.875H188.714V131.021Z" fill="#263238"/>
<path d="M138.49 121.509V99.3047H161.891V121.509H138.49ZM141.848 102.49V118.34H158.55V102.49H141.848Z" fill="#263238"/>
<path d="M208.768 121.514H185.367V99.3154H208.768V121.514ZM205.428 102.49H188.725V118.334H205.428V102.49Z" fill="#263238"/>
<path d="M138.496 143.769H161.902V165.973H138.496V143.769ZM158.556 146.954H141.848V162.804H158.556V146.954Z" fill="#263238"/>
<path d="M168.612 112.002V105.648H165.272V99.3101H181.98V105.637H178.704V108.817H182.015V115.154H178.681V112.002H175.317V108.833H171.976V111.991H168.607L168.612 112.002ZM171.97 105.626H175.288V102.49H171.97V105.626Z" fill="#263238"/>
<path d="M155.216 127.875V131.049H161.902V134.218H151.875V140.567H138.501V134.251H141.813V137.392H148.529V127.875H155.221H155.216Z" fill="#263238"/>
<path d="M168.607 156.461V159.635H171.953V162.804H175.288V165.979H165.272V156.466H168.595L168.607 156.461Z" fill="#263238"/>
<path d="M148.529 127.874H141.836V131.038H138.501V124.722H148.517V127.88L148.529 127.874Z" fill="#263238"/>
<path d="M208.768 134.217H205.451V127.885H202.111V124.716H208.768V134.217Z" fill="#263238"/>
<path d="M155.221 127.886V124.722H161.897V127.874H155.216L155.221 127.886Z" fill="#263238"/>
<path d="M202.099 140.589V137.425H205.422V140.578H202.064L202.099 140.589Z" fill="#263238"/>
<path d="M205.457 143.774H208.768V146.921H205.457V143.774Z" fill="#263238"/>
<path d="M178.657 121.531V118.368H181.986V121.52H178.651L178.657 121.531Z" fill="#263238"/>
<path d="M168.618 150.134H165.272V146.965H168.595V150.134H168.618Z" fill="#263238"/>
<path d="M202.099 153.292V150.134H205.422V153.287H202.099V153.292Z" fill="#263238"/>
<path d="M198.741 131.06H202.064V134.229H198.741V131.043V131.06Z" fill="#263238"/>
<path d="M181.986 162.804H178.669V159.663H181.986V162.804Z" fill="#263238"/>
<path d="M188.696 162.81V165.973H185.373V162.821H188.708L188.696 162.81Z" fill="#263238"/>
<path d="M208.768 165.984H205.457V162.837H208.768V165.984Z" fill="#263238"/>
<path d="M182.009 137.392H178.704V134.24H182.033V137.392H182.009Z" fill="#263238"/>
<path d="M155.198 115.16H145.188V105.665H155.198V115.16Z" fill="#263238"/>
<path d="M192.06 115.155V105.659H202.064V115.155H192.06Z" fill="#263238"/>
<path d="M145.188 159.624V150.134H155.198V159.63L145.188 159.624Z" fill="#263238"/>
<path d="M148.213 91.7812H133.555V107.122" stroke="#92E3A9" stroke-width="2" stroke-miterlimit="10"/>
<path d="M201.521 91.7812H216.173V107.122" stroke="#92E3A9" stroke-width="2" stroke-miterlimit="10"/>
<path d="M148.213 172.565H133.555V157.225" stroke="#92E3A9" stroke-width="2" stroke-miterlimit="10"/>
<path d="M201.521 172.565H216.173V157.225" stroke="#92E3A9" stroke-width="2" stroke-miterlimit="10"/>
<path d="M103.613 95.105H98.7485C97.8873 95.105 97.1892 95.7672 97.1892 96.5842V109.509C97.1892 110.326 97.8873 110.988 98.7485 110.988H103.613C104.474 110.988 105.172 110.326 105.172 109.509V96.5842C105.172 95.7672 104.474 95.105 103.613 95.105Z" fill="#263238" stroke="#263238" stroke-miterlimit="10"/>
<path d="M104.46 96.5068H97.8899V109.581H104.46V96.5068Z" fill="white" stroke="#263238" stroke-miterlimit="10"/>
<path d="M33.6733 172.942C36.0165 172.93 38.3097 172.298 40.2959 171.119C40.1674 174.654 40.0681 177.329 40.0681 177.329C40.0681 177.329 40.7105 178.393 41.0317 178.853C41.3529 179.313 44.0802 180.831 44.4014 182.205C44.7226 183.579 46.1534 184.338 46.0074 186.315C45.8614 188.293 44.0802 186.16 44.4014 186.62C44.7226 187.08 45.6862 188.598 45.6862 189.972C45.6862 191.346 42.6377 191.34 41.5106 190.426C40.3835 189.512 36.6985 187.379 36.3773 185.401L35.1217 180.969L33.6733 172.942Z" fill="white" stroke="#263238" stroke-miterlimit="10"/>
<path d="M40.3425 183.928L41.1251 187.252C41.1251 187.252 43.6538 189.097 43.8465 190.393" fill="white"/>
<path d="M40.3425 183.928L41.1251 187.252C41.1251 187.252 43.6538 189.097 43.8465 190.393" stroke="#263238" stroke-miterlimit="10"/>
<path d="M44.3957 186.62L43.2627 184.482" stroke="#263238" stroke-miterlimit="10"/>
<path d="M52.9629 254.158C52.9629 254.158 52.046 261.288 52.7585 262.158C53.1602 262.706 53.6718 263.173 54.264 263.534C54.8562 263.894 55.5174 264.14 56.2099 264.258C57.8334 264.452 60.5782 263.582 60.5782 263.582C62.4306 264.054 64.3552 264.217 66.2664 264.064C69.1864 263.776 71.1369 262.718 71.3413 261.366C71.5457 260.014 69.0053 259.444 67.5862 257.998C66.1671 256.552 63.9012 253.992 63.9012 253.992L63.3172 252.12C63.3172 252.12 59.8657 253.782 57.6349 253.854C56.3732 253.925 55.1071 253.828 53.8739 253.566L52.9629 254.158Z" fill="white" stroke="#263238" stroke-miterlimit="10"/>
<path d="M71.3413 261.383C71.3644 261.224 71.3484 261.063 71.2946 260.912C70.623 261.178 69.7645 261.499 68.7016 261.865C65.6531 262.928 64.1289 262.058 62.6105 262.058C61.0921 262.058 60.9812 263.599 56.718 262.54C53.9323 261.848 52.8869 260.956 52.4898 260.413C52.4338 261.007 52.5259 261.605 52.7584 262.158C53.1601 262.706 53.6717 263.173 54.2639 263.534C54.8561 263.894 55.5174 264.14 56.2099 264.258C57.8334 264.452 60.5782 263.582 60.5782 263.582C62.4306 264.054 64.3552 264.217 66.2664 264.064C69.2097 263.792 71.1369 262.734 71.3413 261.383Z" fill="white" stroke="#263238" stroke-miterlimit="10"/>
<path d="M47.5493 165.646C47.5493 165.646 43.4613 178.665 44.9213 187.806C46.3813 196.947 53.3893 214.121 53.3893 214.121C53.3893 214.121 52.5133 220.492 52.5133 222.708C52.5133 224.924 50.4693 229.079 51.9293 233.511C53.3893 237.943 53.3893 249.577 53.3893 250.408C53.3893 251.239 52.8053 255.671 52.8053 255.671C52.8053 255.671 53.9733 257.333 58.3533 257.333C62.7333 257.333 63.9013 254.009 63.9013 254.009C63.9013 254.009 68.2813 229.356 68.2813 225.478C68.2813 221.6 72.9533 207.196 74.7053 201.379C75.8769 197.375 77.5741 193.526 79.7569 189.922C80.9249 187.983 80.2533 164.538 80.2533 164.538L46.9653 161.768L47.5493 165.646Z" fill="#737373" stroke="#263238" stroke-miterlimit="10"/>
<path d="M70.5295 255.992C70.5295 255.992 74.8979 257.626 77.0295 258.59C79.1611 259.554 80.5802 259.649 80.5802 261.194C80.5802 262.74 76.7258 264.275 74.3898 264.662C72.0538 265.05 68.2928 264.95 67.8899 265.045C67.4869 265.139 59.8657 266.202 58.9547 264.369C58.0436 262.535 59.0539 256.28 59.0539 256.28C62.8622 256.897 66.761 256.799 70.5295 255.992Z" fill="white" stroke="#263238" stroke-miterlimit="10"/>
<path d="M67.8898 265.044C68.2928 264.95 72.0537 265.044 74.3897 264.662C76.7257 264.28 80.5801 262.734 80.5801 261.194C80.5816 260.991 80.5501 260.789 80.4867 260.596C79.5007 261.141 78.4807 261.63 77.4324 262.058C74.5883 263.216 70.8332 263.986 65.1684 263.892C62.9734 263.887 60.7877 263.621 58.6626 263.1C58.6951 263.536 58.8016 263.964 58.978 264.368C59.8656 266.202 67.481 265.144 67.8898 265.044Z" fill="white" stroke="#263238" stroke-miterlimit="10"/>
<path d="M80.5451 166.754C80.5451 166.754 82.2971 189.191 78.7931 206.088C75.2891 222.985 69.4491 245.976 69.1571 247.084C68.8651 248.192 71.2011 251.239 71.2011 251.239V255.671C71.2011 255.671 69.1571 257.61 64.4851 258.164C59.8131 258.718 58.3531 257.333 58.3531 257.333C58.3531 257.333 57.1851 249.854 57.1851 244.591C57.1851 239.328 58.3531 221.323 58.3531 221.323C58.3531 221.323 60.9811 203.041 60.6891 200.271C60.3971 197.501 59.5211 188.914 59.5211 188.914L54.8491 183.651" fill="#737373"/>
<path d="M80.5451 166.754C80.5451 166.754 82.2971 189.191 78.7931 206.088C75.2891 222.985 69.4491 245.976 69.1571 247.084C68.8651 248.192 71.2011 251.239 71.2011 251.239V255.671C71.2011 255.671 69.1571 257.61 64.4851 258.164C59.8131 258.718 58.3531 257.333 58.3531 257.333C58.3531 257.333 57.1851 249.854 57.1851 244.591C57.1851 239.328 58.3531 221.323 58.3531 221.323C58.3531 221.323 60.9811 203.041 60.6891 200.271C60.3971 197.501 59.5211 188.914 59.5211 188.914L54.8491 183.651" stroke="#263238" stroke-miterlimit="10"/>
<path d="M31.46 162.532L40.6463 161.003C40.6054 162.183 40.8682 154.726 40.8682 154.172C40.8682 152.954 43.9167 145.308 43.9167 145.308C43.9167 145.308 46.3228 155.214 46.3228 156.433C46.3228 157.652 45.3592 166.959 46.644 168.161C47.9288 169.363 52.4256 171.817 62.3828 171.513C72.34 171.208 79.7276 170.443 81.6548 168.615C83.582 166.787 81.3336 161.153 81.1701 160.394C81.0066 159.635 83.7397 139.674 83.7397 139.674C83.7397 139.674 94.4969 150.339 100.921 148.815C107.345 147.292 104.296 123.542 104.296 123.542L104.618 116.689C104.618 116.689 106.703 111.664 106.703 110.9C106.703 110.135 104.618 104.656 104.618 104.656C104.618 104.656 103.333 103.587 102.527 106.179C102.075 107.572 101.753 108.999 101.563 110.445C101.563 110.445 99.6362 111.814 99.8114 113.797C99.9078 114.993 100.177 116.171 100.611 117.298L96.2665 130.744C96.2665 130.744 91.4485 125.564 91.1273 124.65C90.8061 123.736 90.9637 120.384 86.9517 118.401C82.9396 116.417 74.7461 116.268 74.7461 116.268L52.1044 116.423C52.1044 116.423 41.5048 117.309 39.1279 119.287C36.751 121.265 29.3342 146.405 29.3342 150.211C29.3342 151.402 29.9883 155.092 30.9052 159.657L31.46 162.532Z" fill="white" stroke="#263238" stroke-miterlimit="10"/>
<path d="M104.618 104.667C104.618 104.667 104.133 108.473 104.454 109.237C104.915 110.562 105.025 111.974 104.775 113.348" stroke="#263238" stroke-miterlimit="10"/>
<path d="M100.921 148.843C107.345 147.32 104.296 123.553 104.296 123.553L104.367 122.019C103.665 121.514 102.851 121.167 101.987 121.005C101.123 120.843 100.231 120.869 99.3792 121.082L96.2665 130.744C96.2665 130.744 91.4485 125.564 91.1273 124.65C90.8061 123.736 90.9637 120.384 86.9517 118.401C82.9396 116.418 74.7461 116.268 74.7461 116.268L52.1044 116.423C52.1044 116.423 41.5048 117.31 39.1279 119.287C36.751 121.265 29.3342 146.406 29.3342 150.212C29.3342 152.472 31.7053 163.74 33.7025 172.926C36.034 172.913 38.3163 172.288 40.2959 171.12C40.5295 164.533 40.8799 154.965 40.8799 154.173C40.8799 152.954 43.9284 145.309 43.9284 145.309C43.9284 145.309 46.3345 155.214 46.3345 156.433C46.3345 157.652 45.3709 166.959 46.6557 168.161C47.9405 169.363 52.4373 171.818 62.3945 171.513C72.3517 171.208 79.7393 170.444 81.6665 168.616C83.5937 166.787 81.3453 161.153 81.1817 160.394C81.0182 159.635 83.7514 139.675 83.7514 139.675C83.7514 139.675 94.4969 150.367 100.921 148.843Z" fill="#92E3A9" stroke="#263238" stroke-miterlimit="10"/>
<path d="M40.7631 136.954L43.9167 145.336L37.4226 134.805" stroke="#263238" stroke-miterlimit="10"/>
<path d="M38.9819 132.223L40.0974 135.187" stroke="#263238" stroke-miterlimit="10"/>
<path d="M61.2207 137.547C62.6398 140.572 64.7247 144.367 67.2067 146.81" stroke="#263238" stroke-miterlimit="10"/>
<path d="M59.2292 132.777C59.2292 132.777 59.6673 134.023 60.4498 135.835" stroke="#263238" stroke-miterlimit="10"/>
<path d="M62.7332 142.932C62.7332 142.932 66.2372 149.58 67.9892 150.87" stroke="#263238" stroke-miterlimit="10"/>
<path d="M89.2351 134.871L90.5666 133.697" stroke="#263238" stroke-miterlimit="10"/>
<path d="M87.0627 133.143L83.7397 139.702L88.0263 135.935" stroke="#263238" stroke-miterlimit="10"/>
<path d="M102.247 136.838C102.054 135.547 96.2664 130.716 96.2664 130.716C96.2664 130.716 102.247 132.96 103.806 134.993" stroke="#263238" stroke-miterlimit="10"/>
<path d="M76.9945 96.285C76.9945 96.285 77.3157 100.097 77.8004 100.717C78.2852 101.338 78.6005 106.047 77.8004 107.42C77.0004 108.794 76.5156 110.467 76.0484 110.922C75.5812 111.376 73.8 111.382 73.1284 111.382C72.4568 111.382 65.262 111.077 65.262 111.077L65.4255 101.476C65.4255 101.476 67.2008 94.3073 76.9945 96.285Z" fill="white" stroke="#263238" stroke-miterlimit="10"/>
<path d="M64.1523 85.6261C64.1523 85.6261 57.5648 87.6039 56.1223 93.0719C54.6798 98.5398 59.3343 104.8 59.3343 104.8C59.3343 104.8 60.6191 109.232 61.7404 110.135C62.8616 111.038 67.3584 110.135 68.8068 109.83C70.2551 109.526 73.4788 101.299 73.4788 101.299C73.4788 101.299 73.4788 103.277 74.4424 103.277C75.406 103.277 75.2483 100.689 75.2483 100.23C75.2483 99.7697 79.7451 96.5731 79.7451 91.0941C79.7451 85.615 74.7519 83.1885 70.0799 83.4932C65.4079 83.7979 64.1523 85.6261 64.1523 85.6261Z" fill="#263238" stroke="#263238" stroke-miterlimit="10"/>
<path d="M77.8005 115.936C77.8005 115.936 76.8369 112.739 76.3522 112.285C75.8675 111.83 72.819 109.997 67.8433 109.692C62.8676 109.387 55.48 109.542 54.8376 109.847C54.1952 110.152 54.0317 112.739 54.0317 112.739C54.0317 112.739 51.9468 114.567 51.4621 115.636C50.9774 116.706 50.4985 117.154 54.9661 120.661C59.4337 124.168 61.8748 125.536 66.5293 124.467C71.1838 123.398 77.929 117.005 77.929 117.005L77.8005 115.936Z" fill="#92E3A9" stroke="#263238" stroke-miterlimit="10"/>
<path d="M66.313 118.096C69.4739 117.071 72.515 115.74 75.3883 114.124" stroke="#263238" stroke-miterlimit="10"/>
<path d="M54.0315 113.348C54.0315 113.348 56.9515 118.833 62.0615 118.833C62.758 118.825 63.4522 118.754 64.1347 118.622" stroke="#263238" stroke-miterlimit="10"/>
</svg>
