<svg width="35" height="37" viewBox="0 0 35 37" fill="none" xmlns="http://www.w3.org/2000/svg">
<path d="M12.7237 5.84211C14.4109 5.84211 16.0291 6.66278 17.2221 8.12359C18.4152 9.5844 19.0855 11.5657 19.0855 13.6316C19.0855 15.6975 18.4152 17.6788 17.2221 19.1396C16.0291 20.6004 14.4109 21.4211 12.7237 21.4211C11.0364 21.4211 9.41824 20.6004 8.22516 19.1396C7.03209 17.6788 6.36183 15.6975 6.36183 13.6316C6.36183 11.5657 7.03209 9.5844 8.22516 8.12359C9.41824 6.66278 11.0364 5.84211 12.7237 5.84211ZM12.7237 25.3158C16.9702 25.3158 25.4473 27.9253 25.4473 33.1053V37H0V33.1053C0 27.9253 8.47713 25.3158 12.7237 25.3158ZM25.0656 6.54316C28.2783 10.8274 28.2783 16.7668 25.0656 20.7005L22.3936 17.4095C23.7296 15.1116 23.7296 12.1321 22.3936 9.83421L25.0656 6.54316ZM30.33 0C36.5805 7.88684 36.5328 19.6879 30.33 27.2632L27.7376 24.0889C32.1431 17.8963 32.1431 9.05526 27.7376 3.17421L30.33 0Z" fill="white"/>
</svg>
